<?xml version="1.0" encoding="UTF-8"?>
<svg xmlns="http://www.w3.org/2000/svg" xmlns:xlink="http://www.w3.org/1999/xlink" width="504pt" height="360pt" viewBox="0 0 504 360" version="1.1">
<g id="surface69">
<rect x="0" y="0" width="504" height="360" style="fill:rgb(100%,100%,100%);fill-opacity:1;stroke:none;"/>
<path style="fill-rule:nonzero;fill:rgb(94.509804%,76.862745%,5.882353%);fill-opacity:1;stroke-width:0.75;stroke-linecap:round;stroke-linejoin:round;stroke:rgb(100%,100%,100%);stroke-opacity:1;stroke-miterlimit:10;" d="M 85.332031 13.332031 L 168.664063 13.332031 L 168.664063 96.664063 L 85.332031 96.664063 Z M 85.332031 13.332031 "/>
<path style="fill-rule:nonzero;fill:rgb(18.431373%,57.254902%,82.352941%);fill-opacity:1;stroke-width:0.75;stroke-linecap:round;stroke-linejoin:round;stroke:rgb(100%,100%,100%);stroke-opacity:1;stroke-miterlimit:10;" d="M 85.332031 96.667969 L 168.664063 96.667969 L 168.664063 180 L 85.332031 180 Z M 85.332031 96.667969 "/>
<path style="fill-rule:nonzero;fill:rgb(17.254902%,24.313725%,31.372549%);fill-opacity:1;stroke-width:0.75;stroke-linecap:round;stroke-linejoin:round;stroke:rgb(100%,100%,100%);stroke-opacity:1;stroke-miterlimit:10;" d="M 85.332031 180 L 168.664063 180 L 168.664063 263.332031 L 85.332031 263.332031 Z M 85.332031 180 "/>
<path style="fill-rule:nonzero;fill:rgb(18.039216%,80%,44.313725%);fill-opacity:1;stroke-width:0.75;stroke-linecap:round;stroke-linejoin:round;stroke:rgb(100%,100%,100%);stroke-opacity:1;stroke-miterlimit:10;" d="M 85.332031 263.332031 L 168.664063 263.332031 L 168.664063 346.664063 L 85.332031 346.664063 Z M 85.332031 263.332031 "/>
<path style="fill-rule:nonzero;fill:rgb(92.54902%,36.862745%,0%);fill-opacity:1;stroke-width:0.75;stroke-linecap:round;stroke-linejoin:round;stroke:rgb(100%,100%,100%);stroke-opacity:1;stroke-miterlimit:10;" d="M 168.667969 13.332031 L 252 13.332031 L 252 96.664063 L 168.667969 96.664063 Z M 168.667969 13.332031 "/>
<path style="fill-rule:nonzero;fill:rgb(16.078431%,50.196078%,72.54902%);fill-opacity:1;stroke-width:0.75;stroke-linecap:round;stroke-linejoin:round;stroke:rgb(100%,100%,100%);stroke-opacity:1;stroke-miterlimit:10;" d="M 168.667969 96.667969 L 252 96.667969 L 252 180 L 168.667969 180 Z M 168.667969 96.667969 "/>
<path style="fill-rule:nonzero;fill:rgb(49.803922%,54.901961%,55.294118%);fill-opacity:1;stroke-width:0.75;stroke-linecap:round;stroke-linejoin:round;stroke:rgb(100%,100%,100%);stroke-opacity:1;stroke-miterlimit:10;" d="M 168.667969 180 L 252 180 L 252 263.332031 L 168.667969 263.332031 Z M 168.667969 180 "/>
<path style="fill:none;stroke-width:0.75;stroke-linecap:round;stroke-linejoin:round;stroke:rgb(100%,100%,100%);stroke-opacity:1;stroke-miterlimit:10;" d="M 168.667969 263.332031 L 252 263.332031 L 252 346.664063 L 168.667969 346.664063 Z M 168.667969 263.332031 "/>
<path style="fill-rule:nonzero;fill:rgb(82.745098%,32.941176%,0%);fill-opacity:1;stroke-width:0.75;stroke-linecap:round;stroke-linejoin:round;stroke:rgb(100%,100%,100%);stroke-opacity:1;stroke-miterlimit:10;" d="M 252 13.332031 L 335.332031 13.332031 L 335.332031 96.664063 L 252 96.664063 Z M 252 13.332031 "/>
<path style="fill-rule:nonzero;fill:rgb(20%,28.235294%,36.470588%);fill-opacity:1;stroke-width:0.75;stroke-linecap:round;stroke-linejoin:round;stroke:rgb(100%,100%,100%);stroke-opacity:1;stroke-miterlimit:10;" d="M 252 96.667969 L 335.332031 96.667969 L 335.332031 180 L 252 180 Z M 252 96.667969 "/>
<path style="fill-rule:nonzero;fill:rgb(19.215686%,85.098039%,47.058824%);fill-opacity:1;stroke-width:0.75;stroke-linecap:round;stroke-linejoin:round;stroke:rgb(100%,100%,100%);stroke-opacity:1;stroke-miterlimit:10;" d="M 252 180 L 335.332031 180 L 335.332031 263.332031 L 252 263.332031 Z M 252 180 "/>
<path style="fill:none;stroke-width:0.75;stroke-linecap:round;stroke-linejoin:round;stroke:rgb(100%,100%,100%);stroke-opacity:1;stroke-miterlimit:10;" d="M 252 263.332031 L 335.332031 263.332031 L 335.332031 346.664063 L 252 346.664063 Z M 252 263.332031 "/>
<path style="fill-rule:nonzero;fill:rgb(17.254902%,53.72549%,77.647059%);fill-opacity:1;stroke-width:0.75;stroke-linecap:round;stroke-linejoin:round;stroke:rgb(100%,100%,100%);stroke-opacity:1;stroke-miterlimit:10;" d="M 335.332031 13.332031 L 418.664063 13.332031 L 418.664063 96.664063 L 335.332031 96.664063 Z M 335.332031 13.332031 "/>
<path style="fill-rule:nonzero;fill:rgb(22.745098%,32.156863%,41.568627%);fill-opacity:1;stroke-width:0.75;stroke-linecap:round;stroke-linejoin:round;stroke:rgb(100%,100%,100%);stroke-opacity:1;stroke-miterlimit:10;" d="M 335.332031 96.667969 L 418.664063 96.667969 L 418.664063 180 L 335.332031 180 Z M 335.332031 96.667969 "/>
<path style="fill-rule:nonzero;fill:rgb(20.392157%,90.196078%,49.803922%);fill-opacity:1;stroke-width:0.75;stroke-linecap:round;stroke-linejoin:round;stroke:rgb(100%,100%,100%);stroke-opacity:1;stroke-miterlimit:10;" d="M 335.332031 180 L 418.664063 180 L 418.664063 263.332031 L 335.332031 263.332031 Z M 335.332031 180 "/>
<path style="fill:none;stroke-width:0.75;stroke-linecap:round;stroke-linejoin:round;stroke:rgb(100%,100%,100%);stroke-opacity:1;stroke-miterlimit:10;" d="M 335.332031 263.332031 L 418.664063 263.332031 L 418.664063 346.664063 L 335.332031 346.664063 Z M 335.332031 263.332031 "/>
</g>
</svg>
