<?xml version="1.0" encoding="UTF-8"?>
<svg xmlns="http://www.w3.org/2000/svg" xmlns:xlink="http://www.w3.org/1999/xlink" width="504pt" height="2160pt" viewBox="0 0 504 2160" version="1.1">
<g id="surface49">
<rect x="0" y="0" width="504" height="2160" style="fill:rgb(100%,100%,100%);fill-opacity:1;stroke:none;"/>
<path style="fill:none;stroke-width:4.267913;stroke-linecap:round;stroke-linejoin:round;stroke:rgb(81.960784%,94.117647%,88.235294%);stroke-opacity:1;stroke-miterlimit:10;" d="M 86.34375 98.183594 L 86.34375 265.371094 L 76.304688 268.648438 L 66.261719 271.925781 L 46.183594 278.480469 L 36.144531 281.761719 L 26.105469 285.039063 L 16.0625 288.316406 L 497.976563 291.59375 L 487.9375 294.875 L 477.894531 298.152344 L 467.855469 301.429688 L 447.777344 304.707031 L 337.339844 307.984375 L 226.902344 311.265625 L 116.460938 314.542969 L 6.023438 317.820313 L 6.023438 2061.816406 "/>
<path style="fill:none;stroke-width:4.267913;stroke-linecap:round;stroke-linejoin:round;stroke:rgb(81.176471%,92.54902%,87.843137%);stroke-opacity:1;stroke-miterlimit:10;" d="M 477.894531 98.183594 L 477.894531 111.292969 L 467.855469 114.574219 L 447.777344 117.851563 L 226.902344 124.40625 L 116.460938 127.683594 L 6.023438 130.964844 L 6.023438 314.542969 L 116.460938 317.820313 L 116.460938 2061.816406 "/>
<path style="fill:none;stroke-width:4.267913;stroke-linecap:round;stroke-linejoin:round;stroke:rgb(80.392157%,91.372549%,87.45098%);stroke-opacity:1;stroke-miterlimit:10;" d="M 156.621094 98.183594 L 156.621094 507.957031 L 126.503906 517.789063 L 106.421875 521.070313 L 76.304688 530.902344 L 66.261719 534.179688 L 56.222656 537.460938 L 26.105469 547.292969 L 16.0625 550.570313 L 497.976563 553.851563 L 487.9375 557.128906 L 477.894531 560.40625 L 467.855469 563.683594 L 447.777344 566.964844 L 226.902344 573.519531 L 226.902344 2061.816406 "/>
<path style="fill:none;stroke-width:4.267913;stroke-linecap:round;stroke-linejoin:round;stroke:rgb(79.215686%,89.803922%,87.45098%);stroke-opacity:1;stroke-miterlimit:10;" d="M 267.058594 98.183594 L 267.058594 901.339844 L 236.941406 911.171875 L 216.859375 914.453125 L 176.703125 927.5625 L 166.660156 930.84375 L 126.503906 943.953125 L 106.421875 947.234375 L 76.304688 957.066406 L 66.261719 960.347656 L 26.105469 973.457031 L 16.0625 976.738281 L 497.976563 980.015625 L 487.9375 983.292969 L 477.894531 986.570313 L 467.855469 989.851563 L 447.777344 993.128906 L 337.339844 996.40625 L 337.339844 2061.816406 "/>
<path style="fill:none;stroke-width:4.267913;stroke-linecap:round;stroke-linejoin:round;stroke:rgb(78.431373%,88.627451%,87.058824%);stroke-opacity:1;stroke-miterlimit:10;" d="M 317.257813 98.183594 L 317.257813 1225.878906 L 307.21875 1229.15625 L 297.179688 1232.4375 L 287.140625 1235.714844 L 277.097656 1238.992188 L 257.019531 1245.546875 L 246.980469 1248.828125 L 236.941406 1252.105469 L 216.859375 1255.382813 L 206.820313 1258.660156 L 196.78125 1261.941406 L 176.703125 1268.496094 L 166.660156 1271.773438 L 156.621094 1275.050781 L 146.582031 1278.332031 L 126.503906 1284.886719 L 106.421875 1288.164063 L 96.382813 1291.441406 L 86.34375 1294.722656 L 76.304688 1298 L 66.261719 1301.277344 L 56.222656 1304.554688 L 46.183594 1307.835938 L 26.105469 1314.390625 L 16.0625 1317.667969 L 497.976563 1320.945313 L 487.9375 1324.226563 L 477.894531 1327.503906 L 467.855469 1330.78125 L 447.777344 1334.058594 L 447.777344 2061.816406 "/>
<path style="fill:none;stroke-width:4.267913;stroke-linecap:round;stroke-linejoin:round;stroke:rgb(77.647059%,87.058824%,86.666667%);stroke-opacity:1;stroke-miterlimit:10;" d="M 297.179688 98.183594 L 297.179688 1052.136719 L 287.140625 1055.414063 L 277.097656 1058.691406 L 267.058594 1061.96875 L 257.019531 1065.25 L 236.941406 1071.804688 L 216.859375 1075.082031 L 206.820313 1078.359375 L 196.78125 1081.640625 L 176.703125 1088.195313 L 166.660156 1091.472656 L 156.621094 1094.75 L 146.582031 1098.03125 L 126.503906 1104.585938 L 106.421875 1107.863281 L 96.382813 1111.144531 L 76.304688 1117.699219 L 66.261719 1120.976563 L 56.222656 1124.253906 L 46.183594 1127.535156 L 26.105469 1134.089844 L 16.0625 1137.367188 L 497.976563 1140.648438 L 487.9375 1143.925781 L 477.894531 1147.203125 L 467.855469 1150.480469 L 447.777344 1153.757813 L 447.777344 1330.78125 L 467.855469 1334.058594 L 467.855469 2061.816406 "/>
<path style="fill:none;stroke-width:4.267913;stroke-linecap:round;stroke-linejoin:round;stroke:rgb(76.470588%,85.882353%,86.27451%);stroke-opacity:1;stroke-miterlimit:10;" d="M 457.816406 98.183594 L 457.816406 1920.855469 L 437.738281 1924.132813 L 427.695313 1927.414063 L 387.539063 1940.523438 L 377.496094 1943.804688 L 347.378906 1953.636719 L 327.296875 1956.917969 L 287.140625 1970.027344 L 277.097656 1973.308594 L 236.941406 1986.417969 L 216.859375 1989.699219 L 186.742188 1999.53125 L 176.703125 2002.8125 L 166.660156 2006.089844 L 136.542969 2015.921875 L 126.503906 2019.203125 L 106.421875 2022.480469 L 86.34375 2029.035156 L 76.304688 2032.316406 L 66.261719 2035.59375 L 36.144531 2045.425781 L 26.105469 2048.707031 L 16.0625 2051.984375 L 497.976563 2055.261719 L 487.9375 2058.539063 L 477.894531 2061.816406 "/>
<path style="fill:none;stroke-width:4.267913;stroke-linecap:round;stroke-linejoin:round;stroke:rgb(75.686275%,84.313725%,85.882353%);stroke-opacity:1;stroke-miterlimit:10;" d="M 126.503906 98.183594 L 126.503906 399.773438 L 106.421875 403.054688 L 76.304688 412.886719 L 66.261719 416.167969 L 26.105469 429.277344 L 16.0625 432.558594 L 497.976563 435.835938 L 487.9375 439.113281 L 477.894531 442.390625 L 467.855469 445.671875 L 447.777344 448.949219 L 226.902344 455.503906 L 226.902344 570.242188 L 337.339844 573.519531 L 337.339844 993.128906 L 447.777344 996.40625 L 447.777344 1150.480469 L 467.855469 1153.757813 L 467.855469 1327.503906 L 477.894531 1330.78125 L 477.894531 2058.539063 L 487.9375 2061.816406 "/>
<path style="fill:none;stroke-width:4.267913;stroke-linecap:round;stroke-linejoin:round;stroke:rgb(74.901961%,82.745098%,85.490196%);stroke-opacity:1;stroke-miterlimit:10;" d="M 166.660156 98.183594 L 166.660156 573.519531 L 146.582031 580.074219 L 136.542969 583.355469 L 126.503906 586.632813 L 106.421875 589.910156 L 96.382813 593.1875 L 86.34375 596.46875 L 76.304688 599.746094 L 66.261719 603.023438 L 46.183594 609.578125 L 36.144531 612.859375 L 26.105469 616.136719 L 16.0625 619.414063 L 497.976563 622.691406 L 487.9375 625.96875 L 477.894531 629.25 L 467.855469 632.527344 L 447.777344 635.804688 L 447.777344 989.851563 L 467.855469 993.128906 L 467.855469 1147.203125 L 477.894531 1150.480469 L 477.894531 1324.226563 L 487.9375 1327.503906 L 487.9375 2055.261719 L 497.976563 2058.539063 L 497.976563 2061.816406 "/>
<path style="fill:none;stroke-width:4.267913;stroke-linecap:round;stroke-linejoin:round;stroke:rgb(74.117647%,81.568627%,85.490196%);stroke-opacity:1;stroke-miterlimit:10;" d="M 46.183594 98.183594 L 46.183594 180.136719 L 26.105469 186.691406 L 16.0625 189.972656 L 497.976563 193.25 L 487.9375 196.527344 L 477.894531 199.804688 L 467.855469 203.082031 L 447.777344 206.363281 L 226.902344 212.917969 L 116.460938 216.195313 L 116.460938 311.265625 L 226.902344 314.542969 L 226.902344 452.226563 L 337.339844 455.503906 L 337.339844 566.964844 L 447.777344 570.242188 L 447.777344 632.527344 L 467.855469 635.804688 L 467.855469 986.570313 L 477.894531 989.851563 L 477.894531 1143.925781 L 487.9375 1147.203125 L 487.9375 1320.945313 L 497.976563 1324.226563 L 497.976563 2051.984375 L 16.0625 2055.261719 L 16.0625 2061.816406 "/>
<path style="fill:none;stroke-width:4.267913;stroke-linecap:round;stroke-linejoin:round;stroke:rgb(72.941176%,80%,85.098039%);stroke-opacity:1;stroke-miterlimit:10;" d="M 337.339844 98.183594 L 337.339844 101.460938 L 226.902344 104.738281 L 116.460938 108.015625 L 6.023438 111.292969 L 6.023438 127.683594 L 116.460938 130.964844 L 116.460938 212.917969 L 226.902344 216.195313 L 226.902344 307.984375 L 337.339844 311.265625 L 337.339844 448.949219 L 447.777344 452.226563 L 447.777344 563.683594 L 467.855469 566.964844 L 467.855469 629.25 L 477.894531 632.527344 L 477.894531 983.292969 L 487.9375 986.570313 L 487.9375 1140.648438 L 497.976563 1143.925781 L 497.976563 1317.667969 L 16.0625 1320.945313 L 16.0625 2048.707031 L 26.105469 2051.984375 L 26.105469 2061.816406 "/>
<path style="fill:none;stroke-width:4.267913;stroke-linecap:round;stroke-linejoin:round;stroke:rgb(72.156863%,78.823529%,84.705882%);stroke-opacity:1;stroke-miterlimit:10;" d="M 96.382813 98.183594 L 96.382813 317.820313 L 86.34375 321.097656 L 76.304688 324.378906 L 66.261719 327.65625 L 36.144531 337.488281 L 26.105469 340.769531 L 16.0625 344.046875 L 497.976563 347.324219 L 487.9375 350.601563 L 477.894531 353.878906 L 467.855469 357.160156 L 447.777344 360.4375 L 447.777344 445.671875 L 467.855469 448.949219 L 467.855469 560.40625 L 477.894531 563.683594 L 477.894531 625.96875 L 487.9375 629.25 L 487.9375 980.015625 L 497.976563 983.292969 L 497.976563 1137.367188 L 16.0625 1140.648438 L 16.0625 1314.390625 L 26.105469 1317.667969 L 26.105469 2045.425781 L 36.144531 2048.707031 L 36.144531 2061.816406 "/>
<path style="fill:none;stroke-width:4.267913;stroke-linecap:round;stroke-linejoin:round;stroke:rgb(71.372549%,77.254902%,84.313725%);stroke-opacity:1;stroke-miterlimit:10;" d="M 186.742188 98.183594 L 186.742188 688.257813 L 176.703125 691.535156 L 166.660156 694.8125 L 146.582031 701.367188 L 136.542969 704.648438 L 126.503906 707.925781 L 106.421875 711.203125 L 96.382813 714.480469 L 86.34375 717.761719 L 76.304688 721.039063 L 66.261719 724.316406 L 46.183594 730.871094 L 36.144531 734.152344 L 26.105469 737.429688 L 16.0625 740.707031 L 497.976563 743.984375 L 497.976563 976.738281 L 16.0625 980.015625 L 16.0625 1134.089844 L 26.105469 1137.367188 L 26.105469 1311.113281 L 36.144531 1314.390625 L 36.144531 2042.148438 L 46.183594 2045.425781 L 46.183594 2061.816406 "/>
<path style="fill:none;stroke-width:4.267913;stroke-linecap:round;stroke-linejoin:round;stroke:rgb(70.196078%,76.078431%,83.921569%);stroke-opacity:1;stroke-miterlimit:10;" d="M 176.703125 98.183594 L 176.703125 635.804688 L 166.660156 639.082031 L 156.621094 642.363281 L 126.503906 652.195313 L 106.421875 655.472656 L 96.382813 658.753906 L 76.304688 665.308594 L 66.261719 668.585938 L 56.222656 671.863281 L 46.183594 675.144531 L 26.105469 681.699219 L 16.0625 684.976563 L 497.976563 688.257813 L 497.976563 740.707031 L 16.0625 743.984375 L 16.0625 973.457031 L 26.105469 976.738281 L 26.105469 1130.8125 L 36.144531 1134.089844 L 36.144531 1307.835938 L 46.183594 1311.113281 L 46.183594 2038.871094 L 56.222656 2042.148438 L 56.222656 2061.816406 "/>
<path style="fill:none;stroke-width:4.267913;stroke-linecap:round;stroke-linejoin:round;stroke:rgb(69.411765%,74.509804%,83.529412%);stroke-opacity:1;stroke-miterlimit:10;" d="M 407.617188 98.183594 L 407.617188 1576.644531 L 397.578125 1579.925781 L 387.539063 1583.203125 L 377.496094 1586.480469 L 357.417969 1593.035156 L 347.378906 1596.316406 L 327.296875 1599.59375 L 307.21875 1606.148438 L 297.179688 1609.429688 L 287.140625 1612.707031 L 277.097656 1615.984375 L 257.019531 1622.539063 L 246.980469 1625.820313 L 236.941406 1629.097656 L 216.859375 1632.375 L 196.78125 1638.929688 L 186.742188 1642.210938 L 176.703125 1645.488281 L 166.660156 1648.765625 L 156.621094 1652.042969 L 146.582031 1655.324219 L 126.503906 1661.878906 L 106.421875 1665.15625 L 96.382813 1668.433594 L 86.34375 1671.714844 L 76.304688 1674.992188 L 66.261719 1678.269531 L 56.222656 1681.546875 L 56.222656 2035.59375 L 66.261719 2038.871094 L 66.261719 2061.816406 "/>
<path style="fill:none;stroke-width:4.267913;stroke-linecap:round;stroke-linejoin:round;stroke:rgb(68.627451%,73.333333%,83.137255%);stroke-opacity:1;stroke-miterlimit:10;" d="M 216.859375 98.183594 L 216.859375 773.488281 L 206.820313 776.765625 L 196.78125 780.046875 L 176.703125 786.601563 L 166.660156 789.878906 L 156.621094 793.160156 L 126.503906 802.992188 L 106.421875 806.269531 L 96.382813 809.550781 L 76.304688 816.105469 L 66.261719 819.382813 L 56.222656 822.660156 L 46.183594 825.941406 L 26.105469 832.496094 L 26.105469 970.179688 L 36.144531 973.457031 L 36.144531 1127.535156 L 46.183594 1130.8125 L 46.183594 1304.554688 L 56.222656 1307.835938 L 56.222656 1678.269531 L 66.261719 1681.546875 L 66.261719 2032.316406 L 76.304688 2035.59375 L 76.304688 2061.816406 "/>
<path style="fill:none;stroke-width:4.267913;stroke-linecap:round;stroke-linejoin:round;stroke:rgb(67.45098%,72.156863%,82.745098%);stroke-opacity:1;stroke-miterlimit:10;" d="M 56.222656 98.183594 L 56.222656 216.195313 L 46.183594 219.476563 L 26.105469 226.03125 L 16.0625 229.308594 L 497.976563 232.585938 L 487.9375 235.867188 L 477.894531 239.144531 L 467.855469 242.421875 L 447.777344 245.699219 L 337.339844 248.980469 L 337.339844 304.707031 L 447.777344 307.984375 L 447.777344 357.160156 L 467.855469 360.4375 L 467.855469 442.390625 L 477.894531 445.671875 L 477.894531 557.128906 L 487.9375 560.40625 L 487.9375 622.691406 L 497.976563 625.96875 L 497.976563 684.976563 L 16.0625 688.257813 L 16.0625 737.429688 L 26.105469 740.707031 L 26.105469 829.21875 L 36.144531 832.496094 L 36.144531 966.902344 L 46.183594 970.179688 L 46.183594 1124.253906 L 56.222656 1127.535156 L 56.222656 1301.277344 L 66.261719 1304.554688 L 66.261719 1674.992188 L 76.304688 1678.269531 L 76.304688 2029.035156 L 86.34375 2032.316406 L 86.34375 2061.816406 "/>
<path style="fill:none;stroke-width:4.267913;stroke-linecap:round;stroke-linejoin:round;stroke:rgb(66.666667%,70.588235%,82.745098%);stroke-opacity:1;stroke-miterlimit:10;" d="M 437.738281 98.183594 L 437.738281 1815.953125 L 427.695313 1819.230469 L 417.65625 1822.511719 L 387.539063 1832.34375 L 377.496094 1835.621094 L 367.457031 1838.902344 L 347.378906 1845.457031 L 327.296875 1848.734375 L 317.257813 1852.015625 L 287.140625 1861.847656 L 277.097656 1865.125 L 267.058594 1868.40625 L 236.941406 1878.238281 L 216.859375 1881.519531 L 176.703125 1894.628906 L 166.660156 1897.910156 L 126.503906 1911.019531 L 106.421875 1914.300781 L 86.34375 1920.855469 L 86.34375 2025.757813 L 96.382813 2029.035156 L 96.382813 2061.816406 "/>
<path style="fill:none;stroke-width:4.267913;stroke-linecap:round;stroke-linejoin:round;stroke:rgb(65.490196%,69.411765%,82.352941%);stroke-opacity:1;stroke-miterlimit:10;" d="M 307.21875 98.183594 L 307.21875 1153.757813 L 297.179688 1157.039063 L 287.140625 1160.316406 L 277.097656 1163.59375 L 257.019531 1170.148438 L 246.980469 1173.429688 L 236.941406 1176.707031 L 216.859375 1179.984375 L 206.820313 1183.261719 L 196.78125 1186.542969 L 176.703125 1193.097656 L 166.660156 1196.375 L 156.621094 1199.652344 L 146.582031 1202.933594 L 126.503906 1209.488281 L 106.421875 1212.765625 L 96.382813 1216.046875 L 76.304688 1222.601563 L 66.261719 1225.878906 L 66.261719 1298 L 76.304688 1301.277344 L 76.304688 1671.714844 L 86.34375 1674.992188 L 86.34375 1917.578125 L 96.382813 1920.855469 L 96.382813 2022.480469 L 106.421875 2025.757813 L 106.421875 2061.816406 "/>
<path style="fill:none;stroke-width:4.267913;stroke-linecap:round;stroke-linejoin:round;stroke:rgb(64.705882%,67.843137%,81.960784%);stroke-opacity:1;stroke-miterlimit:10;" d="M 106.421875 98.183594 L 106.421875 360.4375 L 86.34375 366.992188 L 76.304688 370.273438 L 66.261719 373.550781 L 36.144531 383.382813 L 26.105469 386.664063 L 16.0625 389.941406 L 497.976563 393.21875 L 487.9375 396.496094 L 477.894531 399.773438 L 477.894531 439.113281 L 487.9375 442.390625 L 487.9375 553.851563 L 497.976563 557.128906 L 497.976563 619.414063 L 16.0625 622.691406 L 16.0625 681.699219 L 26.105469 684.976563 L 26.105469 734.152344 L 36.144531 737.429688 L 36.144531 825.941406 L 46.183594 829.21875 L 46.183594 963.625 L 56.222656 966.902344 L 56.222656 1120.976563 L 66.261719 1124.253906 L 66.261719 1222.601563 L 76.304688 1225.878906 L 76.304688 1294.722656 L 86.34375 1298 L 86.34375 1668.433594 L 96.382813 1671.714844 L 96.382813 1914.300781 L 106.421875 1917.578125 L 106.421875 2019.203125 L 126.503906 2022.480469 L 126.503906 2061.816406 "/>
<path style="fill:none;stroke-width:4.267913;stroke-linecap:round;stroke-linejoin:round;stroke:rgb(63.921569%,66.666667%,81.568627%);stroke-opacity:1;stroke-miterlimit:10;" d="M 357.417969 98.183594 L 357.417969 1373.398438 L 347.378906 1376.675781 L 327.296875 1379.953125 L 317.257813 1383.234375 L 287.140625 1393.066406 L 277.097656 1396.34375 L 267.058594 1399.625 L 236.941406 1409.457031 L 216.859375 1412.738281 L 176.703125 1425.847656 L 166.660156 1429.128906 L 126.503906 1442.238281 L 106.421875 1445.519531 L 96.382813 1448.796875 L 96.382813 1665.15625 L 106.421875 1668.433594 L 106.421875 1911.019531 L 126.503906 1914.300781 L 126.503906 2015.921875 L 136.542969 2019.203125 L 136.542969 2061.816406 "/>
<path style="fill:none;stroke-width:4.267913;stroke-linecap:round;stroke-linejoin:round;stroke:rgb(62.745098%,65.098039%,81.176471%);stroke-opacity:1;stroke-miterlimit:10;" d="M 487.9375 98.183594 L 487.9375 130.964844 L 477.894531 134.242188 L 467.855469 137.519531 L 447.777344 140.796875 L 337.339844 144.078125 L 226.902344 147.355469 L 226.902344 209.640625 L 337.339844 212.917969 L 337.339844 245.699219 L 447.777344 248.980469 L 447.777344 301.429688 L 467.855469 304.707031 L 467.855469 353.878906 L 477.894531 357.160156 L 477.894531 396.496094 L 487.9375 399.773438 L 487.9375 435.835938 L 497.976563 439.113281 L 497.976563 550.570313 L 16.0625 553.851563 L 16.0625 616.136719 L 26.105469 619.414063 L 26.105469 678.421875 L 36.144531 681.699219 L 36.144531 730.871094 L 46.183594 734.152344 L 46.183594 822.660156 L 56.222656 825.941406 L 56.222656 960.347656 L 66.261719 963.625 L 66.261719 1117.699219 L 76.304688 1120.976563 L 76.304688 1219.324219 L 86.34375 1222.601563 L 86.34375 1291.441406 L 96.382813 1294.722656 L 96.382813 1445.519531 L 106.421875 1448.796875 L 106.421875 1661.878906 L 126.503906 1665.15625 L 126.503906 1907.742188 L 136.542969 1911.019531 L 136.542969 2012.644531 L 146.582031 2015.921875 L 146.582031 2061.816406 "/>
<path style="fill:none;stroke-width:4.267913;stroke-linecap:round;stroke-linejoin:round;stroke:rgb(61.960784%,63.921569%,80.784314%);stroke-opacity:1;stroke-miterlimit:10;" d="M 417.65625 98.183594 L 417.65625 1681.546875 L 407.617188 1684.828125 L 387.539063 1691.382813 L 377.496094 1694.660156 L 367.457031 1697.9375 L 357.417969 1701.21875 L 347.378906 1704.496094 L 327.296875 1707.773438 L 307.21875 1714.328125 L 297.179688 1717.609375 L 287.140625 1720.886719 L 277.097656 1724.164063 L 267.058594 1727.441406 L 257.019531 1730.722656 L 236.941406 1737.277344 L 216.859375 1740.554688 L 206.820313 1743.832031 L 196.78125 1747.113281 L 176.703125 1753.667969 L 166.660156 1756.945313 L 156.621094 1760.226563 L 136.542969 1766.78125 L 136.542969 1904.464844 L 146.582031 1907.742188 L 146.582031 2009.367188 L 156.621094 2012.644531 L 156.621094 2061.816406 "/>
<path style="fill:none;stroke-width:4.267913;stroke-linecap:round;stroke-linejoin:round;stroke:rgb(60.784314%,62.745098%,80.392157%);stroke-opacity:1;stroke-miterlimit:10;" d="M 116.460938 98.183594 L 6.023438 101.460938 L 6.023438 108.015625 L 116.460938 111.292969 L 116.460938 124.40625 L 226.902344 127.683594 L 226.902344 144.078125 L 337.339844 147.355469 L 337.339844 206.363281 L 447.777344 209.640625 L 447.777344 242.421875 L 467.855469 245.699219 L 467.855469 298.152344 L 477.894531 301.429688 L 477.894531 350.601563 L 487.9375 353.878906 L 487.9375 393.21875 L 497.976563 396.496094 L 497.976563 432.558594 L 16.0625 435.835938 L 16.0625 547.292969 L 26.105469 550.570313 L 26.105469 612.859375 L 36.144531 616.136719 L 36.144531 675.144531 L 46.183594 678.421875 L 46.183594 727.59375 L 56.222656 730.871094 L 56.222656 819.382813 L 66.261719 822.660156 L 66.261719 957.066406 L 76.304688 960.347656 L 76.304688 1114.421875 L 86.34375 1117.699219 L 86.34375 1216.046875 L 96.382813 1219.324219 L 96.382813 1288.164063 L 106.421875 1291.441406 L 106.421875 1442.238281 L 126.503906 1445.519531 L 126.503906 1658.601563 L 136.542969 1661.878906 L 136.542969 1763.503906 L 146.582031 1766.78125 L 146.582031 1901.1875 L 156.621094 1904.464844 L 156.621094 2006.089844 L 166.660156 2009.367188 L 166.660156 2061.816406 "/>
<path style="fill:none;stroke-width:4.267913;stroke-linecap:round;stroke-linejoin:round;stroke:rgb(60%,61.176471%,80%);stroke-opacity:1;stroke-miterlimit:10;" d="M 367.457031 98.183594 L 367.457031 1448.796875 L 347.378906 1455.351563 L 327.296875 1458.632813 L 287.140625 1471.742188 L 277.097656 1475.023438 L 246.980469 1484.855469 L 236.941406 1488.136719 L 216.859375 1491.414063 L 186.742188 1501.246094 L 176.703125 1504.527344 L 166.660156 1507.804688 L 136.542969 1517.636719 L 136.542969 1655.324219 L 146.582031 1658.601563 L 146.582031 1760.226563 L 156.621094 1763.503906 L 156.621094 1897.910156 L 166.660156 1901.1875 L 166.660156 2002.8125 L 176.703125 2006.089844 L 176.703125 2061.816406 "/>
<path style="fill:none;stroke-width:4.267913;stroke-linecap:round;stroke-linejoin:round;stroke:rgb(58.823529%,60%,79.607843%);stroke-opacity:1;stroke-miterlimit:10;" d="M 136.542969 98.183594 L 136.542969 455.503906 L 126.503906 458.78125 L 106.421875 462.0625 L 76.304688 471.894531 L 66.261719 475.171875 L 56.222656 478.453125 L 26.105469 488.285156 L 26.105469 544.015625 L 36.144531 547.292969 L 36.144531 609.578125 L 46.183594 612.859375 L 46.183594 671.863281 L 56.222656 675.144531 L 56.222656 724.316406 L 66.261719 727.59375 L 66.261719 816.105469 L 76.304688 819.382813 L 76.304688 953.789063 L 86.34375 957.066406 L 86.34375 1111.144531 L 96.382813 1114.421875 L 96.382813 1212.765625 L 106.421875 1216.046875 L 106.421875 1284.886719 L 126.503906 1288.164063 L 126.503906 1438.960938 L 136.542969 1442.238281 L 136.542969 1514.359375 L 146.582031 1517.636719 L 146.582031 1652.042969 L 156.621094 1655.324219 L 156.621094 1756.945313 L 166.660156 1760.226563 L 166.660156 1894.628906 L 176.703125 1897.910156 L 176.703125 1999.53125 L 186.742188 2002.8125 L 186.742188 2061.816406 "/>
<path style="fill:none;stroke-width:4.267913;stroke-linecap:round;stroke-linejoin:round;stroke:rgb(58.039216%,58.431373%,79.215686%);stroke-opacity:1;stroke-miterlimit:10;" d="M 257.019531 98.183594 L 257.019531 852.164063 L 246.980469 855.445313 L 236.941406 858.722656 L 216.859375 862 L 206.820313 865.277344 L 196.78125 868.558594 L 176.703125 875.113281 L 166.660156 878.390625 L 156.621094 881.667969 L 146.582031 884.949219 L 126.503906 891.503906 L 106.421875 894.78125 L 96.382813 898.058594 L 86.34375 901.339844 L 86.34375 950.511719 L 96.382813 953.789063 L 96.382813 1107.863281 L 106.421875 1111.144531 L 106.421875 1209.488281 L 126.503906 1212.765625 L 126.503906 1281.609375 L 136.542969 1284.886719 L 136.542969 1435.683594 L 146.582031 1438.960938 L 146.582031 1511.082031 L 156.621094 1514.359375 L 156.621094 1648.765625 L 166.660156 1652.042969 L 166.660156 1753.667969 L 176.703125 1756.945313 L 176.703125 1891.351563 L 186.742188 1894.628906 L 186.742188 1996.253906 L 196.78125 1999.53125 L 196.78125 2061.816406 "/>
<path style="fill:none;stroke-width:4.267913;stroke-linecap:round;stroke-linejoin:round;stroke:rgb(56.862745%,57.254902%,79.215686%);stroke-opacity:1;stroke-miterlimit:10;" d="M 6.023438 98.183594 L 116.460938 101.460938 L 116.460938 104.738281 L 226.902344 108.015625 L 226.902344 121.128906 L 337.339844 124.40625 L 337.339844 140.796875 L 447.777344 144.078125 L 447.777344 203.082031 L 467.855469 206.363281 L 467.855469 239.144531 L 477.894531 242.421875 L 477.894531 294.875 L 487.9375 298.152344 L 487.9375 347.324219 L 497.976563 350.601563 L 497.976563 389.941406 L 16.0625 393.21875 L 16.0625 429.277344 L 26.105469 432.558594 L 26.105469 485.007813 L 36.144531 488.285156 L 36.144531 540.738281 L 46.183594 544.015625 L 46.183594 606.300781 L 56.222656 609.578125 L 56.222656 668.585938 L 66.261719 671.863281 L 66.261719 721.039063 L 76.304688 724.316406 L 76.304688 812.828125 L 86.34375 816.105469 L 86.34375 898.058594 L 96.382813 901.339844 L 96.382813 947.234375 L 106.421875 950.511719 L 106.421875 1104.585938 L 126.503906 1107.863281 L 126.503906 1206.210938 L 136.542969 1209.488281 L 136.542969 1278.332031 L 146.582031 1281.609375 L 146.582031 1432.40625 L 156.621094 1435.683594 L 156.621094 1507.804688 L 166.660156 1511.082031 L 166.660156 1645.488281 L 176.703125 1648.765625 L 176.703125 1750.390625 L 186.742188 1753.667969 L 186.742188 1888.074219 L 196.78125 1891.351563 L 196.78125 1992.976563 L 206.820313 1996.253906 L 206.820313 2061.816406 "/>
<path style="fill:none;stroke-width:4.267913;stroke-linecap:round;stroke-linejoin:round;stroke:rgb(56.078431%,56.078431%,78.823529%);stroke-opacity:1;stroke-miterlimit:10;" d="M 226.902344 98.183594 L 226.902344 101.460938 L 337.339844 104.738281 L 337.339844 117.851563 L 447.777344 121.128906 L 447.777344 137.519531 L 467.855469 140.796875 L 467.855469 199.804688 L 477.894531 203.082031 L 477.894531 235.867188 L 487.9375 239.144531 L 487.9375 291.59375 L 497.976563 294.875 L 497.976563 344.046875 L 16.0625 347.324219 L 16.0625 386.664063 L 26.105469 389.941406 L 26.105469 426 L 36.144531 429.277344 L 36.144531 481.730469 L 46.183594 485.007813 L 46.183594 537.460938 L 56.222656 540.738281 L 56.222656 603.023438 L 66.261719 606.300781 L 66.261719 665.308594 L 76.304688 668.585938 L 76.304688 717.761719 L 86.34375 721.039063 L 86.34375 809.550781 L 96.382813 812.828125 L 96.382813 894.78125 L 106.421875 898.058594 L 106.421875 943.953125 L 126.503906 947.234375 L 126.503906 1101.308594 L 136.542969 1104.585938 L 136.542969 1202.933594 L 146.582031 1206.210938 L 146.582031 1275.050781 L 156.621094 1278.332031 L 156.621094 1429.128906 L 166.660156 1432.40625 L 166.660156 1504.527344 L 176.703125 1507.804688 L 176.703125 1642.210938 L 186.742188 1645.488281 L 186.742188 1747.113281 L 196.78125 1750.390625 L 196.78125 1884.796875 L 206.820313 1888.074219 L 206.820313 1989.699219 L 216.859375 1992.976563 L 216.859375 2061.816406 "/>
<path style="fill:none;stroke-width:4.267913;stroke-linecap:round;stroke-linejoin:round;stroke:rgb(54.901961%,54.509804%,78.431373%);stroke-opacity:1;stroke-miterlimit:10;" d="M 36.144531 98.183594 L 36.144531 163.746094 L 26.105469 167.023438 L 16.0625 170.300781 L 497.976563 173.582031 L 487.9375 176.859375 L 477.894531 180.136719 L 477.894531 196.527344 L 487.9375 199.804688 L 487.9375 232.585938 L 497.976563 235.867188 L 497.976563 288.316406 L 16.0625 291.59375 L 16.0625 340.769531 L 26.105469 344.046875 L 26.105469 383.382813 L 36.144531 386.664063 L 36.144531 422.722656 L 46.183594 426 L 46.183594 478.453125 L 56.222656 481.730469 L 56.222656 534.179688 L 66.261719 537.460938 L 66.261719 599.746094 L 76.304688 603.023438 L 76.304688 662.03125 L 86.34375 665.308594 L 86.34375 714.480469 L 96.382813 717.761719 L 96.382813 806.269531 L 106.421875 809.550781 L 106.421875 891.503906 L 126.503906 894.78125 L 126.503906 940.675781 L 136.542969 943.953125 L 136.542969 1098.03125 L 146.582031 1101.308594 L 146.582031 1199.652344 L 156.621094 1202.933594 L 156.621094 1271.773438 L 166.660156 1275.050781 L 166.660156 1425.847656 L 176.703125 1429.128906 L 176.703125 1501.246094 L 186.742188 1504.527344 L 186.742188 1638.929688 L 196.78125 1642.210938 L 196.78125 1743.832031 L 206.820313 1747.113281 L 206.820313 1881.519531 L 216.859375 1884.796875 L 216.859375 1986.417969 L 236.941406 1989.699219 L 236.941406 2061.816406 "/>
<path style="fill:none;stroke-width:4.267913;stroke-linecap:round;stroke-linejoin:round;stroke:rgb(54.117647%,53.333333%,78.039216%);stroke-opacity:1;stroke-miterlimit:10;" d="M 277.097656 98.183594 L 277.097656 996.40625 L 257.019531 1002.960938 L 246.980469 1006.242188 L 236.941406 1009.519531 L 216.859375 1012.796875 L 196.78125 1019.351563 L 186.742188 1022.632813 L 176.703125 1025.910156 L 166.660156 1029.1875 L 156.621094 1032.464844 L 146.582031 1035.746094 L 146.582031 1094.75 L 156.621094 1098.03125 L 156.621094 1196.375 L 166.660156 1199.652344 L 166.660156 1268.496094 L 176.703125 1271.773438 L 176.703125 1422.570313 L 186.742188 1425.847656 L 186.742188 1497.96875 L 196.78125 1501.246094 L 196.78125 1635.652344 L 206.820313 1638.929688 L 206.820313 1740.554688 L 216.859375 1743.832031 L 216.859375 1878.238281 L 236.941406 1881.519531 L 236.941406 1983.140625 L 246.980469 1986.417969 L 246.980469 2061.816406 "/>
<path style="fill:none;stroke-width:4.267913;stroke-linecap:round;stroke-linejoin:round;stroke:rgb(52.941176%,52.156863%,77.647059%);stroke-opacity:1;stroke-miterlimit:10;" d="M 447.777344 98.183594 L 447.777344 114.574219 L 467.855469 117.851563 L 467.855469 134.242188 L 477.894531 137.519531 L 477.894531 176.859375 L 487.9375 180.136719 L 487.9375 193.25 L 497.976563 196.527344 L 497.976563 229.308594 L 16.0625 232.585938 L 16.0625 285.039063 L 26.105469 288.316406 L 26.105469 337.488281 L 36.144531 340.769531 L 36.144531 380.105469 L 46.183594 383.382813 L 46.183594 419.445313 L 56.222656 422.722656 L 56.222656 475.171875 L 66.261719 478.453125 L 66.261719 530.902344 L 76.304688 534.179688 L 76.304688 596.46875 L 86.34375 599.746094 L 86.34375 658.753906 L 96.382813 662.03125 L 96.382813 711.203125 L 106.421875 714.480469 L 106.421875 802.992188 L 126.503906 806.269531 L 126.503906 888.226563 L 136.542969 891.503906 L 136.542969 937.398438 L 146.582031 940.675781 L 146.582031 1032.464844 L 156.621094 1035.746094 L 156.621094 1091.472656 L 166.660156 1094.75 L 166.660156 1193.097656 L 176.703125 1196.375 L 176.703125 1265.21875 L 186.742188 1268.496094 L 186.742188 1419.292969 L 196.78125 1422.570313 L 196.78125 1494.691406 L 206.820313 1497.96875 L 206.820313 1632.375 L 216.859375 1635.652344 L 216.859375 1737.277344 L 236.941406 1740.554688 L 236.941406 1874.960938 L 246.980469 1878.238281 L 246.980469 1979.863281 L 257.019531 1983.140625 L 257.019531 2061.816406 "/>
<path style="fill:none;stroke-width:4.267913;stroke-linecap:round;stroke-linejoin:round;stroke:rgb(51.764706%,50.980392%,77.254902%);stroke-opacity:1;stroke-miterlimit:10;" d="M 146.582031 98.183594 L 146.582031 488.285156 L 136.542969 491.566406 L 126.503906 494.84375 L 106.421875 498.121094 L 86.34375 504.675781 L 76.304688 507.957031 L 76.304688 527.625 L 86.34375 530.902344 L 86.34375 593.1875 L 96.382813 596.46875 L 96.382813 655.472656 L 106.421875 658.753906 L 106.421875 707.925781 L 126.503906 711.203125 L 126.503906 799.714844 L 136.542969 802.992188 L 136.542969 884.949219 L 146.582031 888.226563 L 146.582031 934.121094 L 156.621094 937.398438 L 156.621094 1029.1875 L 166.660156 1032.464844 L 166.660156 1088.195313 L 176.703125 1091.472656 L 176.703125 1189.820313 L 186.742188 1193.097656 L 186.742188 1261.941406 L 196.78125 1265.21875 L 196.78125 1416.015625 L 206.820313 1419.292969 L 206.820313 1491.414063 L 216.859375 1494.691406 L 216.859375 1629.097656 L 236.941406 1632.375 L 236.941406 1734 L 246.980469 1737.277344 L 246.980469 1871.683594 L 257.019531 1874.960938 L 257.019531 1976.585938 L 267.058594 1979.863281 L 267.058594 2061.816406 "/>
<path style="fill:none;stroke-width:4.267913;stroke-linecap:round;stroke-linejoin:round;stroke:rgb(50.980392%,49.411765%,76.862745%);stroke-opacity:1;stroke-miterlimit:10;" d="M 347.378906 98.183594 L 347.378906 1334.058594 L 327.296875 1337.339844 L 287.140625 1350.449219 L 277.097656 1353.730469 L 236.941406 1366.839844 L 216.859375 1370.121094 L 206.820313 1373.398438 L 206.820313 1412.738281 L 216.859375 1416.015625 L 216.859375 1488.136719 L 236.941406 1491.414063 L 236.941406 1625.820313 L 246.980469 1629.097656 L 246.980469 1730.722656 L 257.019531 1734 L 257.019531 1868.40625 L 267.058594 1871.683594 L 267.058594 1973.308594 L 277.097656 1976.585938 L 277.097656 2061.816406 "/>
<path style="fill:none;stroke-width:4.267913;stroke-linecap:round;stroke-linejoin:round;stroke:rgb(49.803922%,48.235294%,76.470588%);stroke-opacity:1;stroke-miterlimit:10;" d="M 427.695313 98.183594 L 427.695313 1766.78125 L 407.617188 1773.335938 L 397.578125 1776.617188 L 387.539063 1779.894531 L 377.496094 1783.171875 L 357.417969 1789.726563 L 347.378906 1793.007813 L 327.296875 1796.285156 L 307.21875 1802.839844 L 297.179688 1806.121094 L 287.140625 1809.398438 L 277.097656 1812.675781 L 267.058594 1815.953125 L 267.058594 1865.125 L 277.097656 1868.40625 L 277.097656 1970.027344 L 287.140625 1973.308594 L 287.140625 2061.816406 "/>
<path style="fill:none;stroke-width:4.267913;stroke-linecap:round;stroke-linejoin:round;stroke:rgb(48.627451%,47.058824%,76.078431%);stroke-opacity:1;stroke-miterlimit:10;" d="M 196.78125 98.183594 L 196.78125 743.984375 L 186.742188 747.261719 L 176.703125 750.542969 L 166.660156 753.820313 L 146.582031 760.375 L 136.542969 763.65625 L 136.542969 796.4375 L 146.582031 799.714844 L 146.582031 881.667969 L 156.621094 884.949219 L 156.621094 930.84375 L 166.660156 934.121094 L 166.660156 1025.910156 L 176.703125 1029.1875 L 176.703125 1084.917969 L 186.742188 1088.195313 L 186.742188 1186.542969 L 196.78125 1189.820313 L 196.78125 1258.660156 L 206.820313 1261.941406 L 206.820313 1370.121094 L 216.859375 1373.398438 L 216.859375 1409.457031 L 236.941406 1412.738281 L 236.941406 1484.855469 L 246.980469 1488.136719 L 246.980469 1622.539063 L 257.019531 1625.820313 L 257.019531 1727.441406 L 267.058594 1730.722656 L 267.058594 1812.675781 L 277.097656 1815.953125 L 277.097656 1861.847656 L 287.140625 1865.125 L 287.140625 1966.75 L 297.179688 1970.027344 L 297.179688 2061.816406 "/>
<path style="fill:none;stroke-width:4.267913;stroke-linecap:round;stroke-linejoin:round;stroke:rgb(47.843137%,45.490196%,75.686275%);stroke-opacity:1;stroke-miterlimit:10;" d="M 387.539063 98.183594 L 387.539063 1530.75 L 377.496094 1534.03125 L 347.378906 1543.863281 L 327.296875 1547.140625 L 317.257813 1550.421875 L 287.140625 1560.253906 L 277.097656 1563.53125 L 267.058594 1566.8125 L 257.019531 1570.089844 L 257.019531 1619.261719 L 267.058594 1622.539063 L 267.058594 1724.164063 L 277.097656 1727.441406 L 277.097656 1809.398438 L 287.140625 1812.675781 L 287.140625 1858.570313 L 297.179688 1861.847656 L 297.179688 1963.472656 L 307.21875 1966.75 L 307.21875 2061.816406 "/>
<path style="fill:none;stroke-width:4.267913;stroke-linecap:round;stroke-linejoin:round;stroke:rgb(46.666667%,44.313725%,75.294118%);stroke-opacity:1;stroke-miterlimit:10;" d="M 16.0625 98.183594 L 16.0625 150.632813 L 497.976563 153.910156 L 487.9375 157.1875 L 487.9375 173.582031 L 497.976563 176.859375 L 497.976563 189.972656 L 16.0625 193.25 L 16.0625 226.03125 L 26.105469 229.308594 L 26.105469 281.761719 L 36.144531 285.039063 L 36.144531 334.210938 L 46.183594 337.488281 L 46.183594 376.828125 L 56.222656 380.105469 L 56.222656 416.167969 L 66.261719 419.445313 L 66.261719 471.894531 L 76.304688 475.171875 L 76.304688 504.675781 L 86.34375 507.957031 L 86.34375 524.347656 L 96.382813 527.625 L 96.382813 589.910156 L 106.421875 593.1875 L 106.421875 652.195313 L 126.503906 655.472656 L 126.503906 704.648438 L 136.542969 707.925781 L 136.542969 760.375 L 146.582031 763.65625 L 146.582031 793.160156 L 156.621094 796.4375 L 156.621094 878.390625 L 166.660156 881.667969 L 166.660156 927.5625 L 176.703125 930.84375 L 176.703125 1022.632813 L 186.742188 1025.910156 L 186.742188 1081.640625 L 196.78125 1084.917969 L 196.78125 1183.261719 L 206.820313 1186.542969 L 206.820313 1255.382813 L 216.859375 1258.660156 L 216.859375 1366.839844 L 236.941406 1370.121094 L 236.941406 1406.179688 L 246.980469 1409.457031 L 246.980469 1481.578125 L 257.019531 1484.855469 L 257.019531 1566.8125 L 267.058594 1570.089844 L 267.058594 1615.984375 L 277.097656 1619.261719 L 277.097656 1720.886719 L 287.140625 1724.164063 L 287.140625 1806.121094 L 297.179688 1809.398438 L 297.179688 1855.292969 L 307.21875 1858.570313 L 307.21875 1960.195313 L 317.257813 1963.472656 L 317.257813 2061.816406 "/>
<path style="fill:none;stroke-width:4.267913;stroke-linecap:round;stroke-linejoin:round;stroke:rgb(45.490196%,43.137255%,74.901961%);stroke-opacity:1;stroke-miterlimit:10;" d="M 26.105469 98.183594 L 26.105469 157.1875 L 16.0625 160.46875 L 497.976563 163.746094 L 497.976563 170.300781 L 16.0625 173.582031 L 16.0625 186.691406 L 26.105469 189.972656 L 26.105469 222.753906 L 36.144531 226.03125 L 36.144531 278.480469 L 46.183594 281.761719 L 46.183594 330.933594 L 56.222656 334.210938 L 56.222656 373.550781 L 66.261719 376.828125 L 66.261719 412.886719 L 76.304688 416.167969 L 76.304688 468.617188 L 86.34375 471.894531 L 86.34375 501.398438 L 96.382813 504.675781 L 96.382813 521.070313 L 106.421875 524.347656 L 106.421875 586.632813 L 126.503906 589.910156 L 126.503906 648.917969 L 136.542969 652.195313 L 136.542969 701.367188 L 146.582031 704.648438 L 146.582031 757.097656 L 156.621094 760.375 L 156.621094 789.878906 L 166.660156 793.160156 L 166.660156 875.113281 L 176.703125 878.390625 L 176.703125 924.285156 L 186.742188 927.5625 L 186.742188 1019.351563 L 196.78125 1022.632813 L 196.78125 1078.359375 L 206.820313 1081.640625 L 206.820313 1179.984375 L 216.859375 1183.261719 L 216.859375 1252.105469 L 236.941406 1255.382813 L 236.941406 1363.5625 L 246.980469 1366.839844 L 246.980469 1402.902344 L 257.019531 1406.179688 L 257.019531 1478.300781 L 267.058594 1481.578125 L 267.058594 1563.53125 L 277.097656 1566.8125 L 277.097656 1612.707031 L 287.140625 1615.984375 L 287.140625 1717.609375 L 297.179688 1720.886719 L 297.179688 1802.839844 L 307.21875 1806.121094 L 307.21875 1852.015625 L 317.257813 1855.292969 L 317.257813 1956.917969 L 327.296875 1960.195313 L 327.296875 2061.816406 "/>
<path style="fill:none;stroke-width:4.267913;stroke-linecap:round;stroke-linejoin:round;stroke:rgb(44.313725%,41.960784%,74.509804%);stroke-opacity:1;stroke-miterlimit:10;" d="M 76.304688 98.183594 L 76.304688 255.535156 L 66.261719 258.8125 L 56.222656 262.089844 L 46.183594 265.371094 L 46.183594 275.203125 L 56.222656 278.480469 L 56.222656 327.65625 L 66.261719 330.933594 L 66.261719 370.273438 L 76.304688 373.550781 L 76.304688 409.609375 L 86.34375 412.886719 L 86.34375 465.339844 L 96.382813 468.617188 L 96.382813 498.121094 L 106.421875 501.398438 L 106.421875 517.789063 L 126.503906 521.070313 L 126.503906 583.355469 L 136.542969 586.632813 L 136.542969 645.640625 L 146.582031 648.917969 L 146.582031 698.089844 L 156.621094 701.367188 L 156.621094 753.820313 L 166.660156 757.097656 L 166.660156 786.601563 L 176.703125 789.878906 L 176.703125 871.835938 L 186.742188 875.113281 L 186.742188 921.007813 L 196.78125 924.285156 L 196.78125 1016.074219 L 206.820313 1019.351563 L 206.820313 1075.082031 L 216.859375 1078.359375 L 216.859375 1176.707031 L 236.941406 1179.984375 L 236.941406 1248.828125 L 246.980469 1252.105469 L 246.980469 1360.285156 L 257.019531 1363.5625 L 257.019531 1399.625 L 267.058594 1402.902344 L 267.058594 1475.023438 L 277.097656 1478.300781 L 277.097656 1560.253906 L 287.140625 1563.53125 L 287.140625 1609.429688 L 297.179688 1612.707031 L 297.179688 1714.328125 L 307.21875 1717.609375 L 307.21875 1799.5625 L 317.257813 1802.839844 L 317.257813 1848.734375 L 327.296875 1852.015625 L 327.296875 1953.636719 L 347.378906 1956.917969 L 347.378906 2061.816406 "/>
<path style="fill:none;stroke-width:4.267913;stroke-linecap:round;stroke-linejoin:round;stroke:rgb(43.137255%,40.784314%,74.117647%);stroke-opacity:1;stroke-miterlimit:10;" d="M 206.820313 98.183594 L 206.820313 763.65625 L 176.703125 773.488281 L 176.703125 783.324219 L 186.742188 786.601563 L 186.742188 868.558594 L 196.78125 871.835938 L 196.78125 917.730469 L 206.820313 921.007813 L 206.820313 1012.796875 L 216.859375 1016.074219 L 216.859375 1071.804688 L 236.941406 1075.082031 L 236.941406 1173.429688 L 246.980469 1176.707031 L 246.980469 1245.546875 L 257.019531 1248.828125 L 257.019531 1357.007813 L 267.058594 1360.285156 L 267.058594 1396.34375 L 277.097656 1399.625 L 277.097656 1471.742188 L 287.140625 1475.023438 L 287.140625 1556.976563 L 297.179688 1560.253906 L 297.179688 1606.148438 L 307.21875 1609.429688 L 307.21875 1711.050781 L 317.257813 1714.328125 L 317.257813 1796.285156 L 327.296875 1799.5625 L 327.296875 1845.457031 L 347.378906 1848.734375 L 347.378906 1950.359375 L 357.417969 1953.636719 L 357.417969 2061.816406 "/>
<path style="fill:none;stroke-width:4.267913;stroke-linecap:round;stroke-linejoin:round;stroke:rgb(41.960784%,39.215686%,73.72549%);stroke-opacity:1;stroke-miterlimit:10;" d="M 287.140625 98.183594 L 287.140625 1035.746094 L 277.097656 1039.023438 L 246.980469 1048.855469 L 236.941406 1052.136719 L 236.941406 1068.527344 L 246.980469 1071.804688 L 246.980469 1170.148438 L 257.019531 1173.429688 L 257.019531 1242.269531 L 267.058594 1245.546875 L 267.058594 1353.730469 L 277.097656 1357.007813 L 277.097656 1393.066406 L 287.140625 1396.34375 L 287.140625 1468.464844 L 297.179688 1471.742188 L 297.179688 1553.699219 L 307.21875 1556.976563 L 307.21875 1602.871094 L 317.257813 1606.148438 L 317.257813 1707.773438 L 327.296875 1711.050781 L 327.296875 1793.007813 L 347.378906 1796.285156 L 347.378906 1842.179688 L 357.417969 1845.457031 L 357.417969 1947.082031 L 367.457031 1950.359375 L 367.457031 2061.816406 "/>
<path style="fill:none;stroke-width:4.267913;stroke-linecap:round;stroke-linejoin:round;stroke:rgb(40.784314%,38.039216%,73.333333%);stroke-opacity:1;stroke-miterlimit:10;" d="M 236.941406 98.183594 L 236.941406 832.496094 L 216.859375 835.773438 L 206.820313 839.054688 L 196.78125 842.332031 L 196.78125 865.277344 L 206.820313 868.558594 L 206.820313 914.453125 L 216.859375 917.730469 L 216.859375 1009.519531 L 236.941406 1012.796875 L 236.941406 1048.855469 L 246.980469 1052.136719 L 246.980469 1065.25 L 257.019531 1068.527344 L 257.019531 1166.871094 L 267.058594 1170.148438 L 267.058594 1238.992188 L 277.097656 1242.269531 L 277.097656 1350.449219 L 287.140625 1353.730469 L 287.140625 1389.789063 L 297.179688 1393.066406 L 297.179688 1465.1875 L 307.21875 1468.464844 L 307.21875 1550.421875 L 317.257813 1553.699219 L 317.257813 1599.59375 L 327.296875 1602.871094 L 327.296875 1704.496094 L 347.378906 1707.773438 L 347.378906 1789.726563 L 357.417969 1793.007813 L 357.417969 1838.902344 L 367.457031 1842.179688 L 367.457031 1943.804688 L 377.496094 1947.082031 L 377.496094 2061.816406 "/>
<path style="fill:none;stroke-width:4.267913;stroke-linecap:round;stroke-linejoin:round;stroke:rgb(39.607843%,36.862745%,72.941176%);stroke-opacity:1;stroke-miterlimit:10;" d="M 246.980469 98.183594 L 246.980469 842.332031 L 236.941406 845.609375 L 216.859375 848.886719 L 206.820313 852.164063 L 206.820313 862 L 216.859375 865.277344 L 216.859375 911.171875 L 236.941406 914.453125 L 236.941406 1006.242188 L 246.980469 1009.519531 L 246.980469 1045.578125 L 257.019531 1048.855469 L 257.019531 1061.96875 L 267.058594 1065.25 L 267.058594 1163.59375 L 277.097656 1166.871094 L 277.097656 1235.714844 L 287.140625 1238.992188 L 287.140625 1347.171875 L 297.179688 1350.449219 L 297.179688 1386.511719 L 307.21875 1389.789063 L 307.21875 1461.910156 L 317.257813 1465.1875 L 317.257813 1547.140625 L 327.296875 1550.421875 L 327.296875 1596.316406 L 347.378906 1599.59375 L 347.378906 1701.21875 L 357.417969 1704.496094 L 357.417969 1786.449219 L 367.457031 1789.726563 L 367.457031 1835.621094 L 377.496094 1838.902344 L 377.496094 1940.523438 L 387.539063 1943.804688 L 387.539063 2061.816406 "/>
<path style="fill:none;stroke-width:4.267913;stroke-linecap:round;stroke-linejoin:round;stroke:rgb(38.431373%,35.686275%,72.54902%);stroke-opacity:1;stroke-miterlimit:10;" d="M 377.496094 98.183594 L 377.496094 1517.636719 L 367.457031 1520.917969 L 347.378906 1527.472656 L 327.296875 1530.75 L 327.296875 1543.863281 L 347.378906 1547.140625 L 347.378906 1593.035156 L 357.417969 1596.316406 L 357.417969 1697.9375 L 367.457031 1701.21875 L 367.457031 1783.171875 L 377.496094 1786.449219 L 377.496094 1832.34375 L 387.539063 1835.621094 L 387.539063 1937.246094 L 397.578125 1940.523438 L 397.578125 2061.816406 "/>
<path style="fill:none;stroke-width:4.267913;stroke-linecap:round;stroke-linejoin:round;stroke:rgb(37.254902%,34.509804%,72.156863%);stroke-opacity:1;stroke-miterlimit:10;" d="M 66.261719 98.183594 L 66.261719 248.980469 L 46.183594 255.535156 L 46.183594 262.089844 L 56.222656 265.371094 L 56.222656 271.925781 L 66.261719 275.203125 L 66.261719 324.378906 L 76.304688 327.65625 L 76.304688 366.992188 L 86.34375 370.273438 L 86.34375 406.332031 L 96.382813 409.609375 L 96.382813 462.0625 L 106.421875 465.339844 L 106.421875 494.84375 L 126.503906 498.121094 L 126.503906 514.511719 L 136.542969 517.789063 L 136.542969 580.074219 L 146.582031 583.355469 L 146.582031 642.363281 L 156.621094 645.640625 L 156.621094 694.8125 L 166.660156 698.089844 L 166.660156 750.542969 L 176.703125 753.820313 L 176.703125 770.210938 L 186.742188 773.488281 L 186.742188 780.046875 L 196.78125 783.324219 L 196.78125 839.054688 L 206.820313 842.332031 L 206.820313 848.886719 L 216.859375 852.164063 L 216.859375 858.722656 L 236.941406 862 L 236.941406 907.894531 L 246.980469 911.171875 L 246.980469 1002.960938 L 257.019531 1006.242188 L 257.019531 1042.300781 L 267.058594 1045.578125 L 267.058594 1058.691406 L 277.097656 1061.96875 L 277.097656 1160.316406 L 287.140625 1163.59375 L 287.140625 1232.4375 L 297.179688 1235.714844 L 297.179688 1343.894531 L 307.21875 1347.171875 L 307.21875 1383.234375 L 317.257813 1386.511719 L 317.257813 1458.632813 L 327.296875 1461.910156 L 327.296875 1527.472656 L 347.378906 1530.75 L 347.378906 1540.585938 L 357.417969 1543.863281 L 357.417969 1589.757813 L 367.457031 1593.035156 L 367.457031 1694.660156 L 377.496094 1697.9375 L 377.496094 1779.894531 L 387.539063 1783.171875 L 387.539063 1829.066406 L 397.578125 1832.34375 L 397.578125 1933.96875 L 407.617188 1937.246094 L 407.617188 2061.816406 "/>
<path style="fill:none;stroke-width:4.267913;stroke-linecap:round;stroke-linejoin:round;stroke:rgb(36.078431%,32.941176%,71.764706%);stroke-opacity:1;stroke-miterlimit:10;" d="M 497.976563 98.183594 L 497.976563 147.355469 L 487.9375 150.632813 L 487.9375 153.910156 L 497.976563 157.1875 L 497.976563 160.46875 L 16.0625 163.746094 L 16.0625 167.023438 L 26.105469 170.300781 L 26.105469 183.414063 L 36.144531 186.691406 L 36.144531 219.476563 L 46.183594 222.753906 L 46.183594 252.257813 L 56.222656 255.535156 L 56.222656 258.8125 L 66.261719 262.089844 L 66.261719 268.648438 L 76.304688 271.925781 L 76.304688 321.097656 L 86.34375 324.378906 L 86.34375 363.714844 L 96.382813 366.992188 L 96.382813 403.054688 L 106.421875 406.332031 L 106.421875 458.78125 L 126.503906 462.0625 L 126.503906 491.566406 L 136.542969 494.84375 L 136.542969 511.234375 L 146.582031 514.511719 L 146.582031 576.796875 L 156.621094 580.074219 L 156.621094 639.082031 L 166.660156 642.363281 L 166.660156 691.535156 L 176.703125 694.8125 L 176.703125 747.261719 L 186.742188 750.542969 L 186.742188 766.933594 L 196.78125 770.210938 L 196.78125 776.765625 L 206.820313 780.046875 L 206.820313 835.773438 L 216.859375 839.054688 L 216.859375 845.609375 L 236.941406 848.886719 L 236.941406 855.445313 L 246.980469 858.722656 L 246.980469 904.617188 L 257.019531 907.894531 L 257.019531 999.683594 L 267.058594 1002.960938 L 267.058594 1039.023438 L 277.097656 1042.300781 L 277.097656 1055.414063 L 287.140625 1058.691406 L 287.140625 1157.039063 L 297.179688 1160.316406 L 297.179688 1229.15625 L 307.21875 1232.4375 L 307.21875 1340.617188 L 317.257813 1343.894531 L 317.257813 1379.953125 L 327.296875 1383.234375 L 327.296875 1455.351563 L 347.378906 1458.632813 L 347.378906 1524.195313 L 357.417969 1527.472656 L 357.417969 1537.308594 L 367.457031 1540.585938 L 367.457031 1586.480469 L 377.496094 1589.757813 L 377.496094 1691.382813 L 387.539063 1694.660156 L 387.539063 1776.617188 L 397.578125 1779.894531 L 397.578125 1825.789063 L 407.617188 1829.066406 L 407.617188 1930.691406 L 417.65625 1933.96875 L 417.65625 2061.816406 "/>
<path style="fill:none;stroke-width:4.267913;stroke-linecap:round;stroke-linejoin:round;stroke:rgb(34.901961%,31.764706%,71.372549%);stroke-opacity:1;stroke-miterlimit:10;" d="M 397.578125 98.183594 L 397.578125 1570.089844 L 387.539063 1573.367188 L 377.496094 1576.644531 L 377.496094 1583.203125 L 387.539063 1586.480469 L 387.539063 1688.105469 L 397.578125 1691.382813 L 397.578125 1773.335938 L 407.617188 1776.617188 L 407.617188 1822.511719 L 417.65625 1825.789063 L 417.65625 1927.414063 L 427.695313 1930.691406 L 427.695313 2061.816406 "/>
<path style="fill:none;stroke-width:4.267913;stroke-linecap:round;stroke-linejoin:round;stroke:rgb(33.333333%,30.588235%,70.980392%);stroke-opacity:1;stroke-miterlimit:10;" d="M 467.855469 98.183594 L 467.855469 111.292969 L 477.894531 114.574219 L 477.894531 130.964844 L 487.9375 134.242188 L 487.9375 147.355469 L 497.976563 150.632813 L 16.0625 153.910156 L 16.0625 157.1875 L 26.105469 160.46875 L 26.105469 163.746094 L 36.144531 167.023438 L 36.144531 180.136719 L 46.183594 183.414063 L 46.183594 216.195313 L 56.222656 219.476563 L 56.222656 248.980469 L 66.261719 252.257813 L 66.261719 255.535156 L 76.304688 258.8125 L 76.304688 265.371094 L 86.34375 268.648438 L 86.34375 317.820313 L 96.382813 321.097656 L 96.382813 360.4375 L 106.421875 363.714844 L 106.421875 399.773438 L 126.503906 403.054688 L 126.503906 455.503906 L 136.542969 458.78125 L 136.542969 488.285156 L 146.582031 491.566406 L 146.582031 507.957031 L 156.621094 511.234375 L 156.621094 573.519531 L 166.660156 576.796875 L 166.660156 635.804688 L 176.703125 639.082031 L 176.703125 688.257813 L 186.742188 691.535156 L 186.742188 743.984375 L 196.78125 747.261719 L 196.78125 763.65625 L 206.820313 766.933594 L 206.820313 773.488281 L 216.859375 776.765625 L 216.859375 832.496094 L 236.941406 835.773438 L 236.941406 842.332031 L 246.980469 845.609375 L 246.980469 852.164063 L 257.019531 855.445313 L 257.019531 901.339844 L 267.058594 904.617188 L 267.058594 996.40625 L 277.097656 999.683594 L 277.097656 1035.746094 L 287.140625 1039.023438 L 287.140625 1052.136719 L 297.179688 1055.414063 L 297.179688 1153.757813 L 307.21875 1157.039063 L 307.21875 1225.878906 L 317.257813 1229.15625 L 317.257813 1337.339844 L 327.296875 1340.617188 L 327.296875 1376.675781 L 347.378906 1379.953125 L 347.378906 1452.074219 L 357.417969 1455.351563 L 357.417969 1520.917969 L 367.457031 1524.195313 L 367.457031 1534.03125 L 377.496094 1537.308594 L 377.496094 1573.367188 L 387.539063 1576.644531 L 387.539063 1579.925781 L 397.578125 1583.203125 L 397.578125 1684.828125 L 407.617188 1688.105469 L 407.617188 1770.058594 L 417.65625 1773.335938 L 417.65625 1819.230469 L 427.695313 1822.511719 L 427.695313 1924.132813 L 437.738281 1927.414063 L 437.738281 2061.816406 "/>
<path style="fill:none;stroke-width:4.267913;stroke-linecap:round;stroke-linejoin:round;stroke:rgb(32.156863%,29.411765%,70.588235%);stroke-opacity:1;stroke-miterlimit:10;" d="M 327.296875 98.183594 L 327.296875 1334.058594 L 347.378906 1337.339844 L 347.378906 1373.398438 L 357.417969 1376.675781 L 357.417969 1448.796875 L 367.457031 1452.074219 L 367.457031 1517.636719 L 377.496094 1520.917969 L 377.496094 1530.75 L 387.539063 1534.03125 L 387.539063 1570.089844 L 397.578125 1573.367188 L 397.578125 1576.644531 L 407.617188 1579.925781 L 407.617188 1681.546875 L 417.65625 1684.828125 L 417.65625 1766.78125 L 427.695313 1770.058594 L 427.695313 1815.953125 L 437.738281 1819.230469 L 437.738281 1920.855469 L 457.816406 1924.132813 L 457.816406 2061.816406 "/>
</g>
</svg>
