<?xml version="1.0" encoding="UTF-8"?>
<svg xmlns="http://www.w3.org/2000/svg" xmlns:xlink="http://www.w3.org/1999/xlink" width="504pt" height="360pt" viewBox="0 0 504 360" version="1.1">
<g id="surface157">
<rect x="0" y="0" width="504" height="360" style="fill:rgb(100%,100%,100%);fill-opacity:1;stroke:none;"/>
<path style=" stroke:none;fill-rule:nonzero;fill:rgb(9.019608%,4.705882%,22.745098%);fill-opacity:1;" d="M 85.332031 13.332031 L 168.664062 13.332031 L 168.664062 96.664062 L 85.332031 96.664062 Z M 85.332031 13.332031 "/>
<path style=" stroke:none;fill-rule:nonzero;fill:rgb(44.313725%,9.803922%,43.137255%);fill-opacity:1;" d="M 85.332031 96.667969 L 168.664062 96.667969 L 168.664062 180 L 85.332031 180 Z M 85.332031 96.667969 "/>
<path style=" stroke:none;fill-rule:nonzero;fill:rgb(77.254902%,23.529412%,30.588235%);fill-opacity:1;" d="M 85.332031 180 L 168.664062 180 L 168.664062 263.332031 L 85.332031 263.332031 Z M 85.332031 180 "/>
<path style=" stroke:none;fill-rule:nonzero;fill:rgb(97.254902%,53.333333%,5.098039%);fill-opacity:1;" d="M 85.332031 263.332031 L 168.664062 263.332031 L 168.664062 346.664062 L 85.332031 346.664062 Z M 85.332031 263.332031 "/>
<path style=" stroke:none;fill-rule:nonzero;fill:rgb(17.647059%,4.313725%,34.901961%);fill-opacity:1;" d="M 168.667969 13.332031 L 252 13.332031 L 252 96.664062 L 168.667969 96.664062 Z M 168.667969 13.332031 "/>
<path style=" stroke:none;fill-rule:nonzero;fill:rgb(52.54902%,12.941176%,41.960784%);fill-opacity:1;" d="M 168.667969 96.667969 L 252 96.667969 L 252 180 L 168.667969 180 Z M 168.667969 96.667969 "/>
<path style=" stroke:none;fill-rule:nonzero;fill:rgb(84.313725%,29.411765%,24.705882%);fill-opacity:1;" d="M 168.667969 180 L 252 180 L 252 263.332031 L 168.667969 263.332031 Z M 168.667969 180 "/>
<path style=" stroke:none;fill-rule:nonzero;fill:rgb(98.823529%,63.529412%,3.137255%);fill-opacity:1;" d="M 168.667969 263.332031 L 252 263.332031 L 252 346.664062 L 168.667969 346.664062 Z M 168.667969 263.332031 "/>
<path style=" stroke:none;fill-rule:nonzero;fill:rgb(27.058824%,3.921569%,41.176471%);fill-opacity:1;" d="M 252 13.332031 L 335.332031 13.332031 L 335.332031 96.664062 L 252 96.664062 Z M 252 13.332031 "/>
<path style=" stroke:none;fill-rule:nonzero;fill:rgb(60.784314%,16.078431%,39.215686%);fill-opacity:1;" d="M 252 96.667969 L 335.332031 96.667969 L 335.332031 180 L 252 180 Z M 252 96.667969 "/>
<path style=" stroke:none;fill-rule:nonzero;fill:rgb(90.196078%,36.470588%,18.823529%);fill-opacity:1;" d="M 252 180 L 335.332031 180 L 335.332031 263.332031 L 252 263.332031 Z M 252 180 "/>
<path style=" stroke:none;fill-rule:nonzero;fill:rgb(98.431373%,73.72549%,12.941176%);fill-opacity:1;" d="M 252 263.332031 L 335.332031 263.332031 L 335.332031 346.664062 L 252 346.664062 Z M 252 263.332031 "/>
<path style=" stroke:none;fill-rule:nonzero;fill:rgb(35.686275%,6.666667%,43.137255%);fill-opacity:1;" d="M 335.332031 13.332031 L 418.664062 13.332031 L 418.664062 96.664062 L 335.332031 96.664062 Z M 335.332031 13.332031 "/>
<path style=" stroke:none;fill-rule:nonzero;fill:rgb(69.411765%,19.607843%,35.294118%);fill-opacity:1;" d="M 335.332031 96.667969 L 418.664062 96.667969 L 418.664062 180 L 335.332031 180 Z M 335.332031 96.667969 "/>
<path style=" stroke:none;fill-rule:nonzero;fill:rgb(94.509804%,44.313725%,12.156863%);fill-opacity:1;" d="M 335.332031 180 L 418.664062 180 L 418.664062 263.332031 L 335.332031 263.332031 Z M 335.332031 180 "/>
<path style=" stroke:none;fill-rule:nonzero;fill:rgb(96.470588%,83.921569%,27.058824%);fill-opacity:1;" d="M 335.332031 263.332031 L 418.664062 263.332031 L 418.664062 346.664062 L 335.332031 346.664062 Z M 335.332031 263.332031 "/>
</g>
</svg>
