<?xml version="1.0" encoding="UTF-8"?>
<svg xmlns="http://www.w3.org/2000/svg" xmlns:xlink="http://www.w3.org/1999/xlink" width="504pt" height="360pt" viewBox="0 0 504 360" version="1.1">
<g id="surface40">
<rect x="0" y="0" width="504" height="360" style="fill:rgb(100%,100%,100%);fill-opacity:1;stroke:none;"/>
<path style="fill:none;stroke-width:12.80374;stroke-linecap:round;stroke-linejoin:round;stroke:rgb(81.960784%,94.117647%,88.235294%);stroke-opacity:1;stroke-miterlimit:10;" d="M 432 16.363281 L 312 125.453125 L 192 234.546875 L 72 343.636719 "/>
<path style="fill:none;stroke-width:12.80374;stroke-linecap:round;stroke-linejoin:round;stroke:rgb(67.058824%,71.372549%,82.745098%);stroke-opacity:1;stroke-miterlimit:10;" d="M 72 16.363281 L 72 234.546875 L 192 343.636719 "/>
<path style="fill:none;stroke-width:12.80374;stroke-linecap:round;stroke-linejoin:round;stroke:rgb(51.372549%,49.803922%,76.862745%);stroke-opacity:1;stroke-miterlimit:10;" d="M 192 16.363281 L 192 125.453125 L 312 234.546875 L 312 343.636719 "/>
<path style="fill:none;stroke-width:12.80374;stroke-linecap:round;stroke-linejoin:round;stroke:rgb(32.156863%,29.411765%,70.588235%);stroke-opacity:1;stroke-miterlimit:10;" d="M 312 16.363281 L 432 125.453125 L 432 343.636719 "/>
<path style=" stroke:none;fill-rule:nonzero;fill:rgb(100%,100%,100%);fill-opacity:1;" d="M 69.40625 20.277344 L 69.40625 19.574219 L 69.464844 19.445312 L 69.589844 19.195312 L 69.652344 19.078125 L 69.722656 18.960938 L 69.792969 18.847656 L 69.863281 18.738281 L 69.9375 18.632812 L 70.015625 18.527344 L 70.097656 18.429688 L 70.179688 18.328125 L 70.261719 18.230469 L 70.433594 18.042969 L 70.605469 17.863281 L 70.691406 17.777344 L 70.78125 17.691406 L 70.867188 17.609375 L 70.957031 17.527344 L 71.046875 17.449219 L 71.136719 17.367188 L 71.226562 17.289062 L 71.316406 17.214844 L 71.40625 17.136719 L 71.496094 17.0625 L 71.582031 16.988281 L 71.671875 16.917969 L 71.757812 16.847656 L 71.847656 16.777344 L 71.933594 16.707031 L 72.019531 16.640625 L 72.105469 16.570312 L 72.1875 16.503906 L 72.269531 16.433594 L 72.347656 16.363281 L 72.425781 16.296875 L 72.574219 16.15625 L 72.648438 16.089844 L 72.71875 16.019531 L 72.785156 15.949219 L 72.910156 15.808594 L 72.96875 15.734375 L 73.023438 15.664062 L 73.078125 15.589844 L 73.128906 15.515625 L 73.175781 15.441406 L 73.21875 15.367188 L 73.261719 15.289062 L 73.300781 15.210938 L 73.363281 15.046875 L 73.386719 14.964844 L 73.40625 14.875 L 73.421875 14.789062 L 73.433594 14.699219 L 73.441406 14.605469 L 73.441406 14.445312 L 73.4375 14.378906 L 73.433594 14.316406 L 73.417969 14.199219 L 73.40625 14.140625 L 73.394531 14.085938 L 73.378906 14.03125 L 73.359375 13.976562 L 73.34375 13.925781 L 73.320312 13.875 L 73.273438 13.78125 L 73.246094 13.734375 L 73.191406 13.648438 L 73.160156 13.609375 L 73.125 13.570312 L 73.054688 13.5 L 73.015625 13.464844 L 72.972656 13.433594 L 72.933594 13.402344 L 72.890625 13.375 L 72.84375 13.347656 L 72.75 13.300781 L 72.597656 13.242188 L 72.542969 13.226562 L 72.492188 13.210938 L 72.433594 13.199219 L 72.378906 13.1875 L 72.320312 13.175781 L 72.261719 13.167969 L 72.203125 13.164062 L 72.140625 13.15625 L 71.894531 13.15625 L 71.835938 13.160156 L 71.777344 13.167969 L 71.722656 13.175781 L 71.664062 13.183594 L 71.554688 13.207031 L 71.445312 13.238281 L 71.394531 13.253906 L 71.34375 13.273438 L 71.296875 13.296875 L 71.246094 13.316406 L 71.199219 13.34375 L 71.152344 13.367188 L 71.109375 13.394531 L 70.980469 13.488281 L 70.863281 13.59375 L 70.828125 13.632812 L 70.757812 13.71875 L 70.726562 13.761719 L 70.699219 13.808594 L 70.667969 13.855469 L 70.640625 13.90625 L 70.617188 13.953125 L 70.59375 14.003906 L 70.554688 14.113281 L 70.535156 14.171875 L 70.519531 14.226562 L 70.507812 14.289062 L 70.492188 14.347656 L 70.484375 14.414062 L 70.472656 14.476562 L 69.453125 14.382812 L 69.464844 14.296875 L 69.476562 14.214844 L 69.492188 14.132812 L 69.511719 14.050781 L 69.558594 13.894531 L 69.585938 13.816406 L 69.617188 13.738281 L 69.648438 13.664062 L 69.683594 13.585938 L 69.722656 13.515625 L 69.765625 13.441406 L 69.808594 13.371094 L 69.902344 13.238281 L 70.066406 13.050781 L 70.128906 12.996094 L 70.191406 12.9375 L 70.324219 12.828125 L 70.394531 12.777344 L 70.46875 12.730469 L 70.546875 12.683594 L 70.625 12.640625 L 70.703125 12.601562 L 70.789062 12.5625 L 70.875 12.527344 L 70.964844 12.492188 L 71.054688 12.460938 L 71.152344 12.433594 L 71.25 12.410156 L 71.453125 12.371094 L 71.558594 12.359375 L 71.667969 12.347656 L 71.894531 12.332031 L 72.128906 12.332031 L 72.242188 12.335938 L 72.351562 12.34375 L 72.460938 12.355469 L 72.566406 12.367188 L 72.769531 12.398438 L 72.867188 12.421875 L 72.960938 12.445312 L 73.054688 12.472656 L 73.144531 12.5 L 73.230469 12.53125 L 73.394531 12.601562 L 73.472656 12.644531 L 73.621094 12.730469 L 73.691406 12.777344 L 73.757812 12.828125 L 73.882812 12.9375 L 73.941406 12.996094 L 74.050781 13.121094 L 74.144531 13.253906 L 74.191406 13.324219 L 74.230469 13.398438 L 74.269531 13.476562 L 74.304688 13.554688 L 74.335938 13.636719 L 74.363281 13.71875 L 74.386719 13.804688 L 74.410156 13.894531 L 74.429688 13.984375 L 74.445312 14.078125 L 74.457031 14.175781 L 74.464844 14.273438 L 74.46875 14.375 L 74.46875 14.554688 L 74.464844 14.632812 L 74.457031 14.710938 L 74.445312 14.785156 L 74.433594 14.863281 L 74.417969 14.9375 L 74.398438 15.011719 L 74.378906 15.082031 L 74.351562 15.15625 L 74.296875 15.296875 L 74.234375 15.4375 L 74.199219 15.507812 L 74.082031 15.707031 L 73.996094 15.839844 L 73.949219 15.90625 L 73.898438 15.96875 L 73.851562 16.035156 L 73.75 16.160156 L 73.640625 16.285156 L 73.582031 16.34375 L 73.464844 16.46875 L 73.339844 16.585938 L 73.277344 16.648438 L 73.214844 16.707031 L 73.148438 16.765625 L 73.085938 16.824219 L 72.753906 17.117188 L 72.683594 17.171875 L 72.617188 17.230469 L 72.550781 17.285156 L 72.480469 17.34375 L 72.414062 17.398438 L 72.34375 17.457031 L 72.277344 17.511719 L 72.207031 17.570312 L 72.136719 17.625 L 72.070312 17.683594 L 72 17.738281 L 71.933594 17.792969 L 71.867188 17.851562 L 71.734375 17.960938 L 71.671875 18.019531 L 71.605469 18.074219 L 71.542969 18.132812 L 71.480469 18.1875 L 71.417969 18.246094 L 71.359375 18.300781 L 71.1875 18.472656 L 71.132812 18.53125 L 71.082031 18.589844 L 71.027344 18.648438 L 70.976562 18.707031 L 70.929688 18.765625 L 70.878906 18.824219 L 70.832031 18.878906 L 70.789062 18.9375 L 70.746094 19 L 70.667969 19.117188 L 70.597656 19.242188 L 70.535156 19.367188 L 70.507812 19.429688 L 74.59375 19.429688 L 74.59375 20.277344 Z M 69.40625 20.277344 "/>
<path style=" stroke:none;fill-rule:nonzero;fill:rgb(100%,100%,100%);fill-opacity:1;" d="M 194.664062 18.117188 L 194.664062 18.222656 L 194.65625 18.328125 L 194.648438 18.429688 L 194.636719 18.53125 L 194.621094 18.625 L 194.601562 18.722656 L 194.578125 18.8125 L 194.550781 18.90625 L 194.488281 19.078125 L 194.410156 19.242188 L 194.367188 19.320312 L 194.324219 19.394531 L 194.273438 19.46875 L 194.21875 19.539062 L 194.164062 19.605469 L 194.105469 19.671875 L 194.042969 19.734375 L 193.976562 19.796875 L 193.835938 19.90625 L 193.761719 19.957031 L 193.683594 20.003906 L 193.601562 20.050781 L 193.515625 20.09375 L 193.335938 20.171875 L 193.242188 20.207031 L 193.140625 20.238281 L 193.042969 20.269531 L 192.832031 20.316406 L 192.722656 20.335938 L 192.496094 20.367188 L 192.378906 20.375 L 192.257812 20.382812 L 192.007812 20.390625 L 191.863281 20.386719 L 191.726562 20.382812 L 191.59375 20.375 L 191.460938 20.363281 L 191.335938 20.34375 L 191.214844 20.324219 L 190.988281 20.277344 L 190.882812 20.246094 L 190.78125 20.210938 L 190.683594 20.175781 L 190.589844 20.132812 L 190.5 20.09375 L 190.410156 20.046875 L 190.328125 20 L 190.25 19.953125 L 190.171875 19.902344 L 190.097656 19.847656 L 190.03125 19.792969 L 189.964844 19.734375 L 189.839844 19.609375 L 189.785156 19.546875 L 189.730469 19.480469 L 189.679688 19.414062 L 189.632812 19.347656 L 189.589844 19.277344 L 189.550781 19.203125 L 189.511719 19.132812 L 189.480469 19.054688 L 189.449219 18.980469 L 189.417969 18.902344 L 189.394531 18.824219 L 189.367188 18.746094 L 189.328125 18.589844 L 189.308594 18.507812 L 189.292969 18.429688 L 189.269531 18.265625 L 190.300781 18.171875 L 190.3125 18.234375 L 190.324219 18.292969 L 190.335938 18.355469 L 190.347656 18.414062 L 190.363281 18.46875 L 190.382812 18.527344 L 190.398438 18.582031 L 190.417969 18.636719 L 190.488281 18.789062 L 190.515625 18.839844 L 190.542969 18.886719 L 190.574219 18.933594 L 190.605469 18.976562 L 190.675781 19.0625 L 190.710938 19.101562 L 190.75 19.140625 L 190.792969 19.179688 L 190.832031 19.214844 L 190.878906 19.25 L 190.921875 19.28125 L 190.972656 19.3125 L 191.019531 19.339844 L 191.070312 19.367188 L 191.125 19.394531 L 191.179688 19.417969 L 191.238281 19.441406 L 191.296875 19.460938 L 191.359375 19.480469 L 191.421875 19.496094 L 191.554688 19.527344 L 191.625 19.535156 L 191.695312 19.546875 L 191.773438 19.554688 L 191.847656 19.558594 L 191.925781 19.5625 L 192.007812 19.5625 L 192.15625 19.558594 L 192.296875 19.546875 L 192.433594 19.527344 L 192.558594 19.503906 L 192.683594 19.46875 L 192.796875 19.429688 L 192.90625 19.378906 L 193.007812 19.324219 L 193.101562 19.261719 L 193.191406 19.191406 L 193.273438 19.113281 L 193.347656 19.027344 L 193.414062 18.933594 L 193.46875 18.832031 L 193.515625 18.726562 L 193.554688 18.613281 L 193.585938 18.492188 L 193.609375 18.363281 L 193.621094 18.226562 L 193.625 18.082031 L 193.625 18 L 193.617188 17.917969 L 193.609375 17.839844 L 193.578125 17.691406 L 193.554688 17.625 L 193.53125 17.5625 L 193.5 17.5 L 193.46875 17.441406 L 193.429688 17.390625 L 193.390625 17.335938 L 193.351562 17.289062 L 193.308594 17.238281 L 193.265625 17.195312 L 193.21875 17.152344 L 193.117188 17.074219 L 193.066406 17.039062 L 193.011719 17.007812 L 192.953125 16.976562 L 192.835938 16.921875 L 192.71875 16.875 L 192.65625 16.851562 L 192.59375 16.832031 L 192.527344 16.816406 L 192.464844 16.800781 L 192.332031 16.777344 L 192.265625 16.769531 L 192.199219 16.757812 L 192.136719 16.753906 L 192.070312 16.746094 L 192.007812 16.738281 L 191.949219 16.734375 L 191.886719 16.730469 L 191.828125 16.730469 L 191.769531 16.726562 L 191.148438 16.726562 L 191.148438 15.859375 L 191.804688 15.859375 L 191.980469 15.847656 L 192.097656 15.832031 L 192.160156 15.824219 L 192.21875 15.816406 L 192.28125 15.804688 L 192.339844 15.792969 L 192.402344 15.777344 L 192.460938 15.761719 L 192.515625 15.742188 L 192.574219 15.722656 L 192.628906 15.699219 L 192.679688 15.675781 L 192.734375 15.652344 L 192.785156 15.625 L 192.886719 15.5625 L 192.980469 15.492188 L 193.027344 15.453125 L 193.109375 15.371094 L 193.148438 15.324219 L 193.183594 15.277344 L 193.253906 15.175781 L 193.285156 15.125 L 193.339844 15.007812 L 193.359375 14.945312 L 193.378906 14.878906 L 193.394531 14.8125 L 193.40625 14.742188 L 193.414062 14.667969 L 193.417969 14.589844 L 193.417969 14.386719 L 193.40625 14.269531 L 193.386719 14.15625 L 193.359375 14.050781 L 193.328125 13.949219 L 193.285156 13.851562 L 193.238281 13.761719 L 193.179688 13.675781 L 193.117188 13.597656 L 193.046875 13.519531 L 192.96875 13.453125 L 192.886719 13.390625 L 192.796875 13.335938 L 192.695312 13.285156 L 192.589844 13.246094 L 192.476562 13.214844 L 192.355469 13.1875 L 192.230469 13.167969 L 192.09375 13.15625 L 191.824219 13.15625 L 191.699219 13.167969 L 191.578125 13.183594 L 191.464844 13.207031 L 191.355469 13.238281 L 191.25 13.277344 L 191.148438 13.320312 L 191.054688 13.371094 L 190.964844 13.429688 L 190.878906 13.492188 L 190.800781 13.5625 L 190.730469 13.640625 L 190.667969 13.722656 L 190.609375 13.808594 L 190.558594 13.902344 L 190.515625 14 L 190.476562 14.105469 L 190.449219 14.214844 L 190.425781 14.328125 L 190.40625 14.449219 L 189.402344 14.371094 L 189.414062 14.269531 L 189.453125 14.074219 L 189.476562 13.980469 L 189.503906 13.886719 L 189.566406 13.714844 L 189.601562 13.628906 L 189.644531 13.550781 L 189.683594 13.472656 L 189.730469 13.394531 L 189.777344 13.324219 L 189.828125 13.253906 L 189.9375 13.121094 L 189.996094 13.058594 L 190.054688 13 L 190.117188 12.941406 L 190.179688 12.890625 L 190.246094 12.835938 L 190.386719 12.742188 L 190.460938 12.695312 L 190.539062 12.65625 L 190.613281 12.617188 L 190.695312 12.578125 L 190.773438 12.546875 L 190.945312 12.484375 L 191.03125 12.460938 L 191.117188 12.433594 L 191.296875 12.394531 L 191.484375 12.363281 L 191.578125 12.351562 L 191.671875 12.34375 L 191.769531 12.335938 L 191.867188 12.332031 L 192.09375 12.332031 L 192.21875 12.339844 L 192.339844 12.347656 L 192.460938 12.359375 L 192.574219 12.375 L 192.683594 12.390625 L 192.792969 12.414062 L 192.894531 12.4375 L 192.996094 12.46875 L 193.09375 12.5 L 193.183594 12.53125 L 193.273438 12.566406 L 193.359375 12.605469 L 193.441406 12.648438 L 193.597656 12.734375 L 193.738281 12.835938 L 193.800781 12.886719 L 193.863281 12.941406 L 193.921875 13 L 194.03125 13.117188 L 194.078125 13.179688 L 194.125 13.246094 L 194.167969 13.3125 L 194.207031 13.382812 L 194.242188 13.453125 L 194.273438 13.523438 L 194.304688 13.597656 L 194.332031 13.675781 L 194.378906 13.832031 L 194.410156 13.988281 L 194.425781 14.070312 L 194.441406 14.234375 L 194.449219 14.40625 L 194.445312 14.472656 L 194.445312 14.539062 L 194.4375 14.609375 L 194.433594 14.671875 L 194.425781 14.738281 L 194.414062 14.800781 L 194.402344 14.867188 L 194.386719 14.925781 L 194.371094 14.988281 L 194.351562 15.050781 L 194.3125 15.167969 L 194.289062 15.222656 L 194.261719 15.28125 L 194.234375 15.335938 L 194.203125 15.386719 L 194.167969 15.441406 L 194.132812 15.492188 L 194.097656 15.539062 L 194.058594 15.589844 L 194.019531 15.636719 L 193.972656 15.679688 L 193.929688 15.726562 L 193.882812 15.769531 L 193.832031 15.8125 L 193.667969 15.929688 L 193.609375 15.964844 L 193.484375 16.035156 L 193.421875 16.066406 L 193.351562 16.09375 L 193.28125 16.125 L 193.210938 16.152344 L 193.136719 16.175781 L 193.058594 16.199219 L 192.976562 16.222656 L 192.894531 16.242188 L 192.808594 16.261719 L 192.808594 16.28125 L 192.902344 16.292969 L 193.082031 16.324219 L 193.167969 16.339844 L 193.332031 16.386719 L 193.410156 16.410156 L 193.484375 16.4375 L 193.632812 16.5 L 193.699219 16.53125 L 193.765625 16.566406 L 193.832031 16.605469 L 193.890625 16.640625 L 193.949219 16.683594 L 194.007812 16.722656 L 194.0625 16.765625 L 194.113281 16.8125 L 194.164062 16.855469 L 194.207031 16.90625 L 194.253906 16.953125 L 194.296875 17.007812 L 194.335938 17.058594 L 194.441406 17.222656 L 194.472656 17.28125 L 194.5 17.339844 L 194.523438 17.398438 L 194.570312 17.523438 L 194.589844 17.585938 L 194.609375 17.652344 L 194.621094 17.714844 L 194.636719 17.78125 L 194.660156 17.980469 L 194.664062 18.046875 Z M 194.664062 18.117188 "/>
<path style=" stroke:none;fill-rule:nonzero;fill:rgb(100%,100%,100%);fill-opacity:1;" d="M 313.730469 18.507812 L 313.730469 20.277344 L 312.785156 20.277344 L 312.785156 18.507812 L 309.097656 18.507812 L 309.097656 17.726562 L 312.679688 12.449219 L 313.730469 12.449219 L 313.730469 17.71875 L 314.832031 17.71875 L 314.832031 18.507812 Z M 312.785156 13.578125 L 312.785156 13.582031 L 312.777344 13.597656 L 312.773438 13.609375 L 312.765625 13.617188 L 312.761719 13.628906 L 312.753906 13.644531 L 312.746094 13.65625 L 312.722656 13.703125 L 312.710938 13.71875 L 312.703125 13.738281 L 312.695312 13.753906 L 312.683594 13.769531 L 312.671875 13.789062 L 312.664062 13.808594 L 312.628906 13.867188 L 312.621094 13.886719 L 312.585938 13.945312 L 312.574219 13.96875 L 312.539062 14.027344 L 312.527344 14.050781 L 312.480469 14.128906 L 312.472656 14.144531 L 312.460938 14.164062 L 312.453125 14.179688 L 312.441406 14.195312 L 312.433594 14.210938 L 312.421875 14.222656 L 312.414062 14.238281 L 310.40625 17.195312 L 310.402344 17.203125 L 310.394531 17.214844 L 310.390625 17.222656 L 310.375 17.246094 L 310.363281 17.257812 L 310.355469 17.269531 L 310.34375 17.285156 L 310.335938 17.296875 L 310.324219 17.3125 L 310.3125 17.324219 L 310.304688 17.339844 L 310.292969 17.355469 L 310.285156 17.371094 L 310.273438 17.386719 L 310.261719 17.398438 L 310.25 17.414062 L 310.242188 17.429688 L 310.207031 17.476562 L 310.195312 17.488281 L 310.1875 17.503906 L 310.164062 17.535156 L 310.152344 17.546875 L 310.128906 17.578125 L 310.117188 17.589844 L 310.109375 17.605469 L 310.097656 17.621094 L 310.085938 17.632812 L 310.078125 17.644531 L 310.066406 17.65625 L 310.050781 17.679688 L 310.03125 17.699219 L 310.027344 17.707031 L 310.019531 17.71875 L 312.785156 17.71875 Z M 312.785156 13.578125 "/>
<path style=" stroke:none;fill-rule:nonzero;fill:rgb(100%,100%,100%);fill-opacity:1;" d="M 429.703125 20.277344 L 429.703125 19.429688 L 431.695312 19.429688 L 431.695312 13.40625 L 429.929688 14.664062 L 429.929688 13.722656 L 431.78125 12.449219 L 432.703125 12.449219 L 432.703125 19.429688 L 434.609375 19.429688 L 434.609375 20.277344 Z M 429.703125 20.277344 "/>
<path style=" stroke:none;fill-rule:nonzero;fill:rgb(100%,100%,100%);fill-opacity:1;" d="M 69.40625 129.371094 L 69.40625 128.664062 L 69.464844 128.535156 L 69.527344 128.410156 L 69.652344 128.167969 L 69.722656 128.050781 L 69.792969 127.941406 L 69.863281 127.828125 L 69.9375 127.722656 L 70.015625 127.621094 L 70.097656 127.519531 L 70.261719 127.324219 L 70.347656 127.226562 L 70.433594 127.136719 L 70.519531 127.042969 L 70.605469 126.953125 L 70.691406 126.867188 L 70.78125 126.78125 L 70.867188 126.699219 L 70.957031 126.617188 L 71.046875 126.539062 L 71.136719 126.457031 L 71.226562 126.382812 L 71.40625 126.226562 L 71.496094 126.152344 L 71.582031 126.082031 L 71.671875 126.007812 L 71.757812 125.9375 L 71.847656 125.867188 L 71.933594 125.800781 L 72.105469 125.660156 L 72.1875 125.59375 L 72.269531 125.523438 L 72.347656 125.457031 L 72.425781 125.386719 L 72.5 125.316406 L 72.574219 125.25 L 72.648438 125.179688 L 72.71875 125.109375 L 72.785156 125.039062 L 72.910156 124.898438 L 72.96875 124.828125 L 73.078125 124.679688 L 73.128906 124.605469 L 73.175781 124.53125 L 73.21875 124.457031 L 73.261719 124.378906 L 73.300781 124.300781 L 73.332031 124.222656 L 73.363281 124.140625 L 73.386719 124.054688 L 73.40625 123.96875 L 73.421875 123.878906 L 73.433594 123.789062 L 73.441406 123.695312 L 73.441406 123.535156 L 73.433594 123.410156 L 73.425781 123.347656 L 73.417969 123.289062 L 73.40625 123.230469 L 73.394531 123.175781 L 73.378906 123.121094 L 73.359375 123.070312 L 73.34375 123.019531 L 73.296875 122.917969 L 73.273438 122.871094 L 73.246094 122.828125 L 73.21875 122.78125 L 73.191406 122.742188 L 73.160156 122.699219 L 73.125 122.660156 L 73.054688 122.589844 L 73.015625 122.554688 L 72.972656 122.523438 L 72.933594 122.496094 L 72.890625 122.464844 L 72.84375 122.441406 L 72.796875 122.414062 L 72.75 122.390625 L 72.648438 122.351562 L 72.597656 122.335938 L 72.542969 122.316406 L 72.492188 122.300781 L 72.433594 122.289062 L 72.378906 122.277344 L 72.320312 122.265625 L 72.261719 122.257812 L 72.203125 122.253906 L 72.078125 122.246094 L 71.953125 122.246094 L 71.777344 122.257812 L 71.722656 122.265625 L 71.664062 122.273438 L 71.554688 122.296875 L 71.445312 122.328125 L 71.34375 122.367188 L 71.296875 122.386719 L 71.246094 122.410156 L 71.152344 122.457031 L 71.109375 122.484375 L 70.980469 122.578125 L 70.902344 122.648438 L 70.863281 122.6875 L 70.792969 122.765625 L 70.757812 122.808594 L 70.726562 122.851562 L 70.699219 122.898438 L 70.667969 122.945312 L 70.640625 122.996094 L 70.59375 123.097656 L 70.574219 123.148438 L 70.554688 123.203125 L 70.535156 123.261719 L 70.519531 123.320312 L 70.507812 123.378906 L 70.492188 123.441406 L 70.484375 123.503906 L 70.472656 123.566406 L 69.453125 123.472656 L 69.464844 123.390625 L 69.476562 123.304688 L 69.492188 123.222656 L 69.511719 123.144531 L 69.535156 123.0625 L 69.558594 122.984375 L 69.585938 122.90625 L 69.617188 122.828125 L 69.648438 122.753906 L 69.683594 122.679688 L 69.722656 122.605469 L 69.808594 122.464844 L 69.855469 122.394531 L 69.902344 122.328125 L 70.011719 122.203125 L 70.066406 122.144531 L 70.191406 122.027344 L 70.257812 121.972656 L 70.324219 121.921875 L 70.394531 121.871094 L 70.46875 121.820312 L 70.703125 121.691406 L 70.789062 121.652344 L 70.875 121.617188 L 70.964844 121.582031 L 71.054688 121.554688 L 71.25 121.5 L 71.351562 121.480469 L 71.453125 121.464844 L 71.558594 121.449219 L 71.667969 121.4375 L 71.78125 121.429688 L 71.894531 121.425781 L 72.015625 121.421875 L 72.242188 121.429688 L 72.351562 121.433594 L 72.460938 121.445312 L 72.566406 121.457031 L 72.667969 121.472656 L 72.769531 121.492188 L 72.867188 121.511719 L 72.960938 121.535156 L 73.054688 121.5625 L 73.144531 121.589844 L 73.230469 121.621094 L 73.3125 121.65625 L 73.394531 121.695312 L 73.472656 121.734375 L 73.621094 121.820312 L 73.691406 121.871094 L 73.757812 121.917969 L 73.882812 122.027344 L 73.941406 122.085938 L 74.050781 122.210938 L 74.097656 122.277344 L 74.191406 122.417969 L 74.269531 122.566406 L 74.304688 122.644531 L 74.335938 122.726562 L 74.363281 122.808594 L 74.386719 122.894531 L 74.410156 122.984375 L 74.429688 123.074219 L 74.445312 123.167969 L 74.457031 123.265625 L 74.464844 123.363281 L 74.46875 123.464844 L 74.46875 123.644531 L 74.464844 123.722656 L 74.457031 123.800781 L 74.445312 123.878906 L 74.433594 123.953125 L 74.417969 124.027344 L 74.378906 124.175781 L 74.324219 124.316406 L 74.296875 124.390625 L 74.265625 124.460938 L 74.234375 124.527344 L 74.199219 124.597656 L 74.160156 124.664062 L 74.121094 124.734375 L 74.082031 124.800781 L 74.039062 124.867188 L 73.996094 124.929688 L 73.949219 124.996094 L 73.898438 125.058594 L 73.851562 125.125 L 73.75 125.25 L 73.640625 125.375 L 73.582031 125.4375 L 73.523438 125.496094 L 73.464844 125.558594 L 73.402344 125.617188 L 73.339844 125.679688 L 73.214844 125.796875 L 73.148438 125.855469 L 73.085938 125.914062 L 72.753906 126.207031 L 72.683594 126.265625 L 72.617188 126.320312 L 72.550781 126.378906 L 72.480469 126.433594 L 72.414062 126.492188 L 72.34375 126.546875 L 72.277344 126.605469 L 72.207031 126.660156 L 72.136719 126.71875 L 72.070312 126.773438 L 72 126.828125 L 71.933594 126.886719 L 71.800781 126.996094 L 71.734375 127.054688 L 71.671875 127.109375 L 71.605469 127.167969 L 71.480469 127.277344 L 71.417969 127.335938 L 71.359375 127.390625 L 71.300781 127.449219 L 71.246094 127.507812 L 71.1875 127.5625 L 71.132812 127.621094 L 71.082031 127.679688 L 71.027344 127.738281 L 70.976562 127.796875 L 70.929688 127.855469 L 70.878906 127.914062 L 70.832031 127.972656 L 70.746094 128.089844 L 70.707031 128.148438 L 70.667969 128.210938 L 70.632812 128.269531 L 70.597656 128.332031 L 70.535156 128.457031 L 70.507812 128.519531 L 74.59375 128.519531 L 74.59375 129.371094 Z M 69.40625 129.371094 "/>
<path style=" stroke:none;fill-rule:nonzero;fill:rgb(100%,100%,100%);fill-opacity:1;" d="M 194.664062 127.207031 L 194.664062 127.316406 L 194.648438 127.519531 L 194.636719 127.621094 L 194.621094 127.71875 L 194.601562 127.8125 L 194.578125 127.90625 L 194.550781 127.996094 L 194.488281 128.167969 L 194.449219 128.253906 L 194.410156 128.332031 L 194.324219 128.488281 L 194.273438 128.558594 L 194.164062 128.699219 L 194.105469 128.761719 L 194.042969 128.824219 L 193.976562 128.886719 L 193.835938 128.996094 L 193.761719 129.046875 L 193.683594 129.097656 L 193.601562 129.140625 L 193.515625 129.183594 L 193.425781 129.226562 L 193.335938 129.261719 L 193.242188 129.296875 L 193.140625 129.332031 L 193.042969 129.359375 L 192.832031 129.40625 L 192.722656 129.425781 L 192.496094 129.457031 L 192.378906 129.46875 L 192.257812 129.476562 L 192.132812 129.480469 L 191.863281 129.480469 L 191.726562 129.472656 L 191.59375 129.464844 L 191.460938 129.453125 L 191.335938 129.4375 L 191.214844 129.417969 L 191.101562 129.394531 L 190.988281 129.367188 L 190.882812 129.335938 L 190.78125 129.304688 L 190.683594 129.265625 L 190.589844 129.226562 L 190.5 129.183594 L 190.410156 129.136719 L 190.328125 129.089844 L 190.25 129.042969 L 190.171875 128.992188 L 190.097656 128.9375 L 190.03125 128.882812 L 189.964844 128.824219 L 189.902344 128.765625 L 189.839844 128.703125 L 189.785156 128.636719 L 189.730469 128.574219 L 189.679688 128.503906 L 189.632812 128.4375 L 189.589844 128.367188 L 189.550781 128.296875 L 189.511719 128.222656 L 189.480469 128.148438 L 189.417969 127.992188 L 189.394531 127.914062 L 189.367188 127.835938 L 189.328125 127.679688 L 189.308594 127.597656 L 189.292969 127.519531 L 189.28125 127.4375 L 189.269531 127.359375 L 190.300781 127.261719 L 190.324219 127.386719 L 190.347656 127.503906 L 190.363281 127.5625 L 190.382812 127.617188 L 190.398438 127.671875 L 190.417969 127.726562 L 190.441406 127.777344 L 190.464844 127.832031 L 190.488281 127.878906 L 190.515625 127.929688 L 190.542969 127.976562 L 190.574219 128.023438 L 190.605469 128.066406 L 190.675781 128.152344 L 190.710938 128.191406 L 190.75 128.230469 L 190.792969 128.269531 L 190.832031 128.304688 L 190.878906 128.339844 L 190.921875 128.371094 L 190.972656 128.402344 L 191.019531 128.433594 L 191.070312 128.460938 L 191.179688 128.507812 L 191.238281 128.53125 L 191.296875 128.550781 L 191.421875 128.589844 L 191.488281 128.605469 L 191.554688 128.617188 L 191.625 128.628906 L 191.695312 128.636719 L 191.773438 128.644531 L 191.847656 128.648438 L 191.925781 128.652344 L 192.007812 128.652344 L 192.15625 128.648438 L 192.296875 128.636719 L 192.433594 128.621094 L 192.558594 128.59375 L 192.683594 128.558594 L 192.796875 128.519531 L 192.90625 128.46875 L 193.007812 128.414062 L 193.101562 128.351562 L 193.191406 128.28125 L 193.273438 128.203125 L 193.347656 128.117188 L 193.414062 128.023438 L 193.46875 127.925781 L 193.515625 127.816406 L 193.554688 127.703125 L 193.585938 127.582031 L 193.609375 127.453125 L 193.621094 127.316406 L 193.625 127.175781 L 193.625 127.089844 L 193.617188 127.007812 L 193.609375 126.929688 L 193.59375 126.855469 L 193.578125 126.785156 L 193.554688 126.714844 L 193.53125 126.652344 L 193.5 126.589844 L 193.46875 126.535156 L 193.390625 126.425781 L 193.351562 126.378906 L 193.265625 126.285156 L 193.21875 126.242188 L 193.167969 126.203125 L 193.066406 126.132812 L 193.011719 126.097656 L 192.953125 126.070312 L 192.894531 126.039062 L 192.835938 126.011719 L 192.71875 125.964844 L 192.59375 125.925781 L 192.527344 125.90625 L 192.464844 125.890625 L 192.332031 125.867188 L 192.199219 125.851562 L 192.136719 125.84375 L 192.070312 125.835938 L 192.007812 125.832031 L 191.949219 125.828125 L 191.886719 125.824219 L 191.828125 125.820312 L 191.148438 125.820312 L 191.148438 124.953125 L 191.691406 124.953125 L 191.75 124.949219 L 191.804688 124.949219 L 191.980469 124.9375 L 192.039062 124.929688 L 192.097656 124.925781 L 192.160156 124.917969 L 192.21875 124.90625 L 192.28125 124.894531 L 192.339844 124.882812 L 192.402344 124.867188 L 192.460938 124.851562 L 192.515625 124.832031 L 192.574219 124.8125 L 192.628906 124.789062 L 192.679688 124.765625 L 192.734375 124.742188 L 192.785156 124.714844 L 192.886719 124.652344 L 192.980469 124.582031 L 193.027344 124.542969 L 193.070312 124.503906 L 193.109375 124.460938 L 193.148438 124.414062 L 193.21875 124.320312 L 193.253906 124.269531 L 193.285156 124.214844 L 193.339844 124.097656 L 193.378906 123.972656 L 193.394531 123.902344 L 193.40625 123.832031 L 193.414062 123.757812 L 193.417969 123.679688 L 193.417969 123.476562 L 193.40625 123.359375 L 193.386719 123.25 L 193.359375 123.140625 L 193.328125 123.039062 L 193.285156 122.945312 L 193.238281 122.851562 L 193.179688 122.765625 L 193.117188 122.6875 L 193.046875 122.613281 L 192.96875 122.542969 L 192.886719 122.480469 L 192.796875 122.425781 L 192.695312 122.378906 L 192.589844 122.335938 L 192.476562 122.304688 L 192.355469 122.277344 L 192.230469 122.261719 L 192.09375 122.25 L 191.953125 122.246094 L 191.824219 122.25 L 191.699219 122.257812 L 191.578125 122.277344 L 191.464844 122.300781 L 191.355469 122.328125 L 191.25 122.367188 L 191.148438 122.410156 L 191.054688 122.460938 L 190.964844 122.519531 L 190.878906 122.585938 L 190.800781 122.65625 L 190.730469 122.730469 L 190.667969 122.8125 L 190.609375 122.898438 L 190.558594 122.992188 L 190.515625 123.089844 L 190.476562 123.195312 L 190.449219 123.304688 L 190.425781 123.417969 L 190.40625 123.539062 L 189.402344 123.460938 L 189.414062 123.359375 L 189.453125 123.164062 L 189.476562 123.070312 L 189.503906 122.980469 L 189.535156 122.890625 L 189.566406 122.804688 L 189.601562 122.722656 L 189.644531 122.640625 L 189.683594 122.5625 L 189.777344 122.414062 L 189.828125 122.34375 L 189.9375 122.210938 L 189.996094 122.148438 L 190.054688 122.089844 L 190.179688 121.980469 L 190.246094 121.929688 L 190.316406 121.878906 L 190.386719 121.832031 L 190.460938 121.789062 L 190.539062 121.746094 L 190.613281 121.707031 L 190.695312 121.667969 L 190.773438 121.636719 L 190.859375 121.605469 L 191.03125 121.550781 L 191.117188 121.527344 L 191.207031 121.503906 L 191.296875 121.484375 L 191.484375 121.453125 L 191.578125 121.441406 L 191.671875 121.433594 L 191.964844 121.421875 L 192.09375 121.425781 L 192.21875 121.429688 L 192.339844 121.4375 L 192.460938 121.449219 L 192.574219 121.464844 L 192.792969 121.503906 L 192.996094 121.558594 L 193.09375 121.589844 L 193.183594 121.621094 L 193.273438 121.660156 L 193.359375 121.695312 L 193.441406 121.738281 L 193.519531 121.78125 L 193.597656 121.828125 L 193.667969 121.875 L 193.738281 121.925781 L 193.863281 122.035156 L 193.921875 122.089844 L 193.976562 122.148438 L 194.03125 122.210938 L 194.125 122.335938 L 194.167969 122.402344 L 194.207031 122.472656 L 194.242188 122.542969 L 194.304688 122.691406 L 194.332031 122.765625 L 194.378906 122.921875 L 194.394531 123 L 194.410156 123.082031 L 194.425781 123.160156 L 194.433594 123.242188 L 194.441406 123.328125 L 194.445312 123.410156 L 194.449219 123.496094 L 194.445312 123.5625 L 194.445312 123.632812 L 194.4375 123.699219 L 194.433594 123.765625 L 194.425781 123.828125 L 194.414062 123.894531 L 194.402344 123.957031 L 194.386719 124.019531 L 194.371094 124.078125 L 194.351562 124.140625 L 194.3125 124.257812 L 194.289062 124.316406 L 194.234375 124.425781 L 194.203125 124.476562 L 194.167969 124.53125 L 194.097656 124.632812 L 194.019531 124.726562 L 193.929688 124.816406 L 193.882812 124.859375 L 193.832031 124.902344 L 193.667969 125.019531 L 193.609375 125.054688 L 193.484375 125.125 L 193.421875 125.15625 L 193.351562 125.1875 L 193.210938 125.242188 L 193.136719 125.265625 L 193.058594 125.289062 L 192.976562 125.3125 L 192.894531 125.332031 L 192.808594 125.351562 L 192.808594 125.375 L 192.902344 125.386719 L 192.992188 125.398438 L 193.082031 125.414062 L 193.167969 125.433594 L 193.25 125.453125 L 193.332031 125.476562 L 193.410156 125.5 L 193.484375 125.527344 L 193.632812 125.589844 L 193.832031 125.695312 L 194.007812 125.8125 L 194.0625 125.855469 L 194.164062 125.949219 L 194.207031 125.996094 L 194.253906 126.046875 L 194.296875 126.097656 L 194.335938 126.148438 L 194.441406 126.3125 L 194.472656 126.371094 L 194.5 126.429688 L 194.523438 126.492188 L 194.546875 126.550781 L 194.570312 126.613281 L 194.589844 126.679688 L 194.609375 126.742188 L 194.621094 126.804688 L 194.636719 126.871094 L 194.660156 127.070312 L 194.664062 127.140625 Z M 194.664062 127.207031 "/>
<path style=" stroke:none;fill-rule:nonzero;fill:rgb(100%,100%,100%);fill-opacity:1;" d="M 309.703125 129.371094 L 309.703125 128.519531 L 311.695312 128.519531 L 311.695312 122.496094 L 309.929688 123.757812 L 309.929688 122.8125 L 311.78125 121.539062 L 312.703125 121.539062 L 312.703125 128.519531 L 314.609375 128.519531 L 314.609375 129.371094 Z M 309.703125 129.371094 "/>
<path style=" stroke:none;fill-rule:nonzero;fill:rgb(100%,100%,100%);fill-opacity:1;" d="M 433.730469 127.597656 L 433.730469 129.371094 L 432.785156 129.371094 L 432.785156 127.597656 L 429.097656 127.597656 L 429.097656 126.820312 L 432.679688 121.539062 L 433.730469 121.539062 L 433.730469 126.808594 L 434.832031 126.808594 L 434.832031 127.597656 Z M 432.785156 122.667969 L 432.785156 122.671875 L 432.777344 122.6875 L 432.773438 122.699219 L 432.765625 122.710938 L 432.761719 122.722656 L 432.746094 122.746094 L 432.722656 122.792969 L 432.710938 122.8125 L 432.695312 122.84375 L 432.683594 122.863281 L 432.671875 122.878906 L 432.664062 122.898438 L 432.628906 122.957031 L 432.621094 122.976562 L 432.597656 123.015625 L 432.585938 123.039062 L 432.550781 123.097656 L 432.539062 123.121094 L 432.527344 123.140625 L 432.515625 123.164062 L 432.503906 123.183594 L 432.492188 123.199219 L 432.480469 123.21875 L 432.472656 123.238281 L 432.460938 123.253906 L 432.453125 123.269531 L 432.441406 123.285156 L 432.433594 123.300781 L 432.421875 123.316406 L 432.414062 123.328125 L 430.40625 126.285156 L 430.402344 126.292969 L 430.394531 126.304688 L 430.390625 126.316406 L 430.382812 126.324219 L 430.375 126.335938 L 430.363281 126.347656 L 430.355469 126.359375 L 430.34375 126.375 L 430.335938 126.386719 L 430.3125 126.417969 L 430.304688 126.429688 L 430.292969 126.445312 L 430.285156 126.460938 L 430.25 126.507812 L 430.242188 126.519531 L 430.195312 126.582031 L 430.1875 126.59375 L 430.152344 126.640625 L 430.140625 126.652344 L 430.117188 126.683594 L 430.109375 126.695312 L 430.097656 126.710938 L 430.085938 126.722656 L 430.078125 126.738281 L 430.066406 126.75 L 430.058594 126.761719 L 430.03125 126.789062 L 430.027344 126.800781 L 430.019531 126.808594 L 432.785156 126.808594 Z M 432.785156 122.667969 "/>
<path style=" stroke:none;fill-rule:nonzero;fill:rgb(100%,100%,100%);fill-opacity:1;" d="M 69.40625 238.460938 L 69.40625 237.753906 L 69.464844 237.625 L 69.527344 237.5 L 69.652344 237.257812 L 69.792969 237.03125 L 69.863281 236.921875 L 69.9375 236.8125 L 70.015625 236.710938 L 70.097656 236.609375 L 70.261719 236.414062 L 70.433594 236.226562 L 70.691406 235.957031 L 70.78125 235.875 L 70.867188 235.789062 L 70.957031 235.710938 L 71.046875 235.628906 L 71.316406 235.394531 L 71.496094 235.246094 L 71.582031 235.171875 L 71.671875 235.101562 L 71.757812 235.027344 L 71.847656 234.960938 L 72.019531 234.820312 L 72.105469 234.753906 L 72.269531 234.613281 L 72.347656 234.546875 L 72.425781 234.476562 L 72.5 234.40625 L 72.574219 234.339844 L 72.648438 234.269531 L 72.785156 234.132812 L 72.847656 234.0625 L 72.910156 233.988281 L 72.96875 233.917969 L 73.023438 233.84375 L 73.078125 233.773438 L 73.128906 233.699219 L 73.175781 233.625 L 73.21875 233.546875 L 73.261719 233.472656 L 73.300781 233.394531 L 73.363281 233.230469 L 73.386719 233.144531 L 73.40625 233.058594 L 73.421875 232.96875 L 73.433594 232.878906 L 73.441406 232.785156 L 73.441406 232.625 L 73.433594 232.5 L 73.425781 232.4375 L 73.417969 232.378906 L 73.40625 232.320312 L 73.394531 232.265625 L 73.378906 232.210938 L 73.359375 232.160156 L 73.34375 232.109375 L 73.296875 232.007812 L 73.273438 231.960938 L 73.191406 231.832031 L 73.160156 231.792969 L 73.089844 231.714844 L 73.054688 231.679688 L 73.015625 231.648438 L 72.972656 231.617188 L 72.933594 231.585938 L 72.890625 231.558594 L 72.84375 231.53125 L 72.75 231.484375 L 72.699219 231.460938 L 72.648438 231.441406 L 72.597656 231.425781 L 72.542969 231.410156 L 72.492188 231.394531 L 72.433594 231.378906 L 72.378906 231.367188 L 72.203125 231.34375 L 72.078125 231.335938 L 71.953125 231.335938 L 71.777344 231.347656 L 71.722656 231.355469 L 71.664062 231.367188 L 71.5 231.402344 L 71.445312 231.417969 L 71.34375 231.457031 L 71.296875 231.476562 L 71.246094 231.5 L 71.199219 231.523438 L 71.152344 231.550781 L 71.066406 231.605469 L 70.980469 231.667969 L 70.902344 231.738281 L 70.863281 231.777344 L 70.792969 231.855469 L 70.757812 231.898438 L 70.726562 231.945312 L 70.699219 231.988281 L 70.667969 232.039062 L 70.640625 232.085938 L 70.59375 232.1875 L 70.535156 232.351562 L 70.519531 232.410156 L 70.507812 232.46875 L 70.492188 232.53125 L 70.484375 232.59375 L 70.472656 232.660156 L 69.453125 232.5625 L 69.476562 232.398438 L 69.492188 232.316406 L 69.511719 232.234375 L 69.535156 232.15625 L 69.558594 232.074219 L 69.585938 231.996094 L 69.617188 231.921875 L 69.648438 231.84375 L 69.683594 231.769531 L 69.722656 231.695312 L 69.808594 231.554688 L 69.902344 231.421875 L 69.957031 231.355469 L 70.011719 231.292969 L 70.066406 231.234375 L 70.128906 231.175781 L 70.191406 231.121094 L 70.257812 231.0625 L 70.324219 231.011719 L 70.394531 230.960938 L 70.46875 230.914062 L 70.546875 230.867188 L 70.703125 230.78125 L 70.789062 230.746094 L 70.875 230.707031 L 71.054688 230.644531 L 71.152344 230.617188 L 71.25 230.59375 L 71.351562 230.570312 L 71.453125 230.554688 L 71.558594 230.539062 L 71.667969 230.527344 L 71.78125 230.519531 L 71.894531 230.515625 L 72.128906 230.515625 L 72.242188 230.519531 L 72.460938 230.535156 L 72.566406 230.546875 L 72.667969 230.5625 L 72.769531 230.582031 L 72.867188 230.601562 L 72.960938 230.625 L 73.054688 230.652344 L 73.144531 230.683594 L 73.230469 230.714844 L 73.3125 230.746094 L 73.394531 230.785156 L 73.472656 230.824219 L 73.546875 230.867188 L 73.621094 230.914062 L 73.691406 230.960938 L 73.757812 231.011719 L 73.820312 231.0625 L 73.882812 231.121094 L 73.941406 231.179688 L 73.996094 231.238281 L 74.050781 231.300781 L 74.097656 231.367188 L 74.191406 231.507812 L 74.269531 231.65625 L 74.304688 231.734375 L 74.335938 231.816406 L 74.363281 231.902344 L 74.410156 232.074219 L 74.429688 232.167969 L 74.445312 232.261719 L 74.457031 232.355469 L 74.464844 232.453125 L 74.46875 232.554688 L 74.46875 232.738281 L 74.464844 232.816406 L 74.457031 232.890625 L 74.445312 232.96875 L 74.433594 233.042969 L 74.417969 233.117188 L 74.378906 233.265625 L 74.351562 233.335938 L 74.324219 233.410156 L 74.296875 233.480469 L 74.234375 233.621094 L 74.199219 233.6875 L 74.160156 233.757812 L 74.082031 233.890625 L 73.996094 234.023438 L 73.949219 234.085938 L 73.898438 234.152344 L 73.851562 234.214844 L 73.75 234.339844 L 73.640625 234.464844 L 73.523438 234.589844 L 73.402344 234.710938 L 73.214844 234.886719 L 73.148438 234.949219 L 73.085938 235.007812 L 72.820312 235.242188 L 72.753906 235.296875 L 72.683594 235.355469 L 72.617188 235.410156 L 72.550781 235.46875 L 72.480469 235.523438 L 72.414062 235.582031 L 72.34375 235.636719 L 72.277344 235.695312 L 72.207031 235.75 L 72.136719 235.808594 L 72.070312 235.867188 L 72 235.921875 L 71.867188 236.03125 L 71.800781 236.089844 L 71.734375 236.144531 L 71.671875 236.199219 L 71.605469 236.257812 L 71.542969 236.3125 L 71.480469 236.371094 L 71.417969 236.425781 L 71.359375 236.484375 L 71.300781 236.539062 L 71.246094 236.597656 L 71.132812 236.710938 L 71.082031 236.769531 L 71.027344 236.828125 L 70.976562 236.886719 L 70.929688 236.945312 L 70.878906 237.003906 L 70.832031 237.0625 L 70.746094 237.179688 L 70.707031 237.238281 L 70.667969 237.300781 L 70.632812 237.359375 L 70.597656 237.421875 L 70.535156 237.546875 L 70.507812 237.609375 L 74.59375 237.609375 L 74.59375 238.460938 Z M 69.40625 238.460938 "/>
<path style=" stroke:none;fill-rule:nonzero;fill:rgb(100%,100%,100%);fill-opacity:1;" d="M 189.703125 238.460938 L 189.703125 237.609375 L 191.695312 237.609375 L 191.695312 231.585938 L 189.929688 232.847656 L 189.929688 231.902344 L 191.78125 230.628906 L 192.703125 230.628906 L 192.703125 237.609375 L 194.609375 237.609375 L 194.609375 238.460938 Z M 189.703125 238.460938 "/>
<path style=" stroke:none;fill-rule:nonzero;fill:rgb(100%,100%,100%);fill-opacity:1;" d="M 314.664062 236.296875 L 314.664062 236.40625 L 314.65625 236.507812 L 314.648438 236.613281 L 314.636719 236.710938 L 314.621094 236.808594 L 314.601562 236.902344 L 314.578125 236.996094 L 314.550781 237.085938 L 314.519531 237.175781 L 314.488281 237.261719 L 314.410156 237.425781 L 314.367188 237.503906 L 314.324219 237.578125 L 314.273438 237.652344 L 314.21875 237.722656 L 314.164062 237.789062 L 314.105469 237.855469 L 314.042969 237.917969 L 313.976562 237.976562 L 313.90625 238.035156 L 313.835938 238.085938 L 313.761719 238.136719 L 313.683594 238.1875 L 313.601562 238.234375 L 313.515625 238.277344 L 313.335938 238.355469 L 313.242188 238.390625 L 313.140625 238.421875 L 313.042969 238.449219 L 312.9375 238.476562 L 312.832031 238.5 L 312.722656 238.519531 L 312.609375 238.535156 L 312.496094 238.546875 L 312.378906 238.558594 L 312.257812 238.566406 L 312.132812 238.570312 L 311.863281 238.570312 L 311.726562 238.566406 L 311.460938 238.542969 L 311.335938 238.527344 L 311.214844 238.507812 L 311.101562 238.484375 L 310.988281 238.457031 L 310.882812 238.425781 L 310.78125 238.394531 L 310.683594 238.355469 L 310.589844 238.316406 L 310.410156 238.230469 L 310.328125 238.183594 L 310.171875 238.082031 L 310.097656 238.027344 L 310.03125 237.972656 L 309.964844 237.914062 L 309.902344 237.855469 L 309.839844 237.792969 L 309.785156 237.730469 L 309.730469 237.664062 L 309.679688 237.597656 L 309.632812 237.527344 L 309.589844 237.457031 L 309.550781 237.386719 L 309.511719 237.3125 L 309.480469 237.238281 L 309.417969 237.082031 L 309.394531 237.003906 L 309.367188 236.925781 L 309.308594 236.691406 L 309.292969 236.609375 L 309.28125 236.53125 L 309.269531 236.449219 L 310.300781 236.355469 L 310.3125 236.414062 L 310.324219 236.476562 L 310.347656 236.59375 L 310.363281 236.652344 L 310.382812 236.707031 L 310.398438 236.761719 L 310.417969 236.816406 L 310.441406 236.871094 L 310.488281 236.972656 L 310.542969 237.066406 L 310.605469 237.160156 L 310.640625 237.203125 L 310.675781 237.242188 L 310.710938 237.285156 L 310.75 237.324219 L 310.792969 237.359375 L 310.832031 237.394531 L 310.878906 237.429688 L 310.921875 237.460938 L 310.972656 237.492188 L 311.019531 237.523438 L 311.070312 237.550781 L 311.125 237.574219 L 311.179688 237.601562 L 311.238281 237.621094 L 311.296875 237.644531 L 311.359375 237.664062 L 311.421875 237.679688 L 311.488281 237.695312 L 311.554688 237.707031 L 311.625 237.71875 L 311.695312 237.726562 L 311.773438 237.734375 L 311.847656 237.738281 L 311.925781 237.742188 L 312.007812 237.742188 L 312.15625 237.738281 L 312.296875 237.730469 L 312.433594 237.710938 L 312.558594 237.683594 L 312.683594 237.652344 L 312.796875 237.609375 L 312.90625 237.5625 L 313.007812 237.503906 L 313.101562 237.441406 L 313.191406 237.371094 L 313.273438 237.292969 L 313.347656 237.207031 L 313.414062 237.117188 L 313.46875 237.015625 L 313.515625 236.910156 L 313.554688 236.792969 L 313.585938 236.671875 L 313.609375 236.542969 L 313.621094 236.410156 L 313.625 236.265625 L 313.625 236.179688 L 313.617188 236.097656 L 313.609375 236.019531 L 313.59375 235.945312 L 313.578125 235.875 L 313.53125 235.742188 L 313.46875 235.625 L 313.429688 235.570312 L 313.351562 235.46875 L 313.265625 235.375 L 313.21875 235.335938 L 313.167969 235.292969 L 313.066406 235.222656 L 313.011719 235.191406 L 312.894531 235.128906 L 312.835938 235.101562 L 312.71875 235.054688 L 312.59375 235.015625 L 312.527344 235 L 312.464844 234.984375 L 312.398438 234.96875 L 312.332031 234.960938 L 312.265625 234.949219 L 312.199219 234.941406 L 312.136719 234.933594 L 312.070312 234.925781 L 312.007812 234.921875 L 311.949219 234.917969 L 311.886719 234.914062 L 311.828125 234.910156 L 311.148438 234.910156 L 311.148438 234.042969 L 311.75 234.042969 L 311.804688 234.039062 L 311.863281 234.039062 L 311.921875 234.035156 L 311.980469 234.027344 L 312.039062 234.023438 L 312.097656 234.015625 L 312.160156 234.007812 L 312.21875 233.996094 L 312.28125 233.988281 L 312.339844 233.972656 L 312.402344 233.957031 L 312.460938 233.941406 L 312.515625 233.925781 L 312.574219 233.902344 L 312.628906 233.882812 L 312.679688 233.859375 L 312.734375 233.832031 L 312.835938 233.777344 L 312.886719 233.742188 L 312.933594 233.710938 L 313.027344 233.632812 L 313.070312 233.59375 L 313.148438 233.507812 L 313.183594 233.460938 L 313.253906 233.359375 L 313.285156 233.304688 L 313.3125 233.25 L 313.339844 233.1875 L 313.378906 233.0625 L 313.394531 232.992188 L 313.40625 232.921875 L 313.414062 232.847656 L 313.417969 232.773438 L 313.417969 232.570312 L 313.40625 232.453125 L 313.386719 232.339844 L 313.359375 232.234375 L 313.328125 232.132812 L 313.285156 232.035156 L 313.238281 231.945312 L 313.179688 231.859375 L 313.117188 231.777344 L 313.046875 231.703125 L 312.96875 231.632812 L 312.886719 231.570312 L 312.796875 231.515625 L 312.695312 231.46875 L 312.589844 231.429688 L 312.476562 231.394531 L 312.355469 231.371094 L 312.230469 231.351562 L 312.09375 231.339844 L 311.953125 231.335938 L 311.824219 231.339844 L 311.699219 231.351562 L 311.578125 231.367188 L 311.464844 231.390625 L 311.355469 231.421875 L 311.25 231.457031 L 311.148438 231.503906 L 311.054688 231.554688 L 310.964844 231.609375 L 310.878906 231.675781 L 310.800781 231.746094 L 310.730469 231.820312 L 310.667969 231.902344 L 310.609375 231.992188 L 310.558594 232.082031 L 310.515625 232.183594 L 310.476562 232.285156 L 310.449219 232.394531 L 310.425781 232.511719 L 310.40625 232.632812 L 309.402344 232.554688 L 309.414062 232.453125 L 309.433594 232.351562 L 309.453125 232.253906 L 309.476562 232.160156 L 309.503906 232.070312 L 309.535156 231.980469 L 309.566406 231.894531 L 309.601562 231.8125 L 309.644531 231.730469 L 309.683594 231.652344 L 309.777344 231.503906 L 309.828125 231.433594 L 309.882812 231.367188 L 309.9375 231.304688 L 310.054688 231.179688 L 310.179688 231.070312 L 310.246094 231.019531 L 310.316406 230.96875 L 310.386719 230.921875 L 310.460938 230.878906 L 310.539062 230.835938 L 310.613281 230.796875 L 310.695312 230.761719 L 310.773438 230.726562 L 310.859375 230.695312 L 311.03125 230.640625 L 311.117188 230.617188 L 311.207031 230.59375 L 311.296875 230.578125 L 311.390625 230.558594 L 311.671875 230.523438 L 311.867188 230.515625 L 312.09375 230.515625 L 312.21875 230.519531 L 312.339844 230.527344 L 312.460938 230.539062 L 312.574219 230.554688 L 312.792969 230.59375 L 312.996094 230.648438 L 313.09375 230.679688 L 313.273438 230.75 L 313.359375 230.789062 L 313.441406 230.828125 L 313.519531 230.871094 L 313.597656 230.917969 L 313.667969 230.964844 L 313.738281 231.015625 L 313.863281 231.125 L 313.921875 231.179688 L 313.976562 231.238281 L 314.03125 231.300781 L 314.078125 231.363281 L 314.125 231.429688 L 314.167969 231.496094 L 314.207031 231.5625 L 314.242188 231.632812 L 314.304688 231.78125 L 314.332031 231.855469 L 314.378906 232.011719 L 314.394531 232.089844 L 314.425781 232.253906 L 314.441406 232.417969 L 314.445312 232.5 L 314.449219 232.585938 L 314.445312 232.65625 L 314.445312 232.722656 L 314.4375 232.789062 L 314.433594 232.855469 L 314.425781 232.921875 L 314.402344 233.046875 L 314.371094 233.171875 L 314.3125 233.347656 L 314.289062 233.40625 L 314.234375 233.515625 L 314.203125 233.570312 L 314.097656 233.722656 L 314.019531 233.816406 L 313.929688 233.90625 L 313.882812 233.949219 L 313.832031 233.992188 L 313.667969 234.109375 L 313.609375 234.144531 L 313.484375 234.214844 L 313.421875 234.246094 L 313.351562 234.277344 L 313.210938 234.332031 L 313.136719 234.359375 L 313.058594 234.382812 L 312.976562 234.402344 L 312.894531 234.425781 L 312.808594 234.441406 L 312.808594 234.464844 L 312.902344 234.476562 L 312.992188 234.488281 L 313.082031 234.503906 L 313.167969 234.523438 L 313.25 234.542969 L 313.332031 234.566406 L 313.410156 234.59375 L 313.558594 234.648438 L 313.632812 234.679688 L 313.832031 234.785156 L 313.949219 234.863281 L 314.007812 234.90625 L 314.0625 234.949219 L 314.113281 234.992188 L 314.164062 235.039062 L 314.207031 235.085938 L 314.253906 235.136719 L 314.296875 235.1875 L 314.335938 235.238281 L 314.40625 235.347656 L 314.441406 235.40625 L 314.472656 235.460938 L 314.5 235.519531 L 314.570312 235.707031 L 314.609375 235.832031 L 314.621094 235.898438 L 314.636719 235.960938 L 314.652344 236.09375 L 314.660156 236.164062 L 314.664062 236.230469 Z M 314.664062 236.296875 "/>
<path style=" stroke:none;fill-rule:nonzero;fill:rgb(100%,100%,100%);fill-opacity:1;" d="M 433.730469 236.6875 L 433.730469 238.460938 L 432.785156 238.460938 L 432.785156 236.6875 L 429.097656 236.6875 L 429.097656 235.910156 L 432.679688 230.628906 L 433.730469 230.628906 L 433.730469 235.898438 L 434.832031 235.898438 L 434.832031 236.6875 Z M 432.785156 231.757812 L 432.785156 231.765625 L 432.773438 231.789062 L 432.765625 231.800781 L 432.761719 231.8125 L 432.753906 231.824219 L 432.722656 231.886719 L 432.710938 231.902344 L 432.695312 231.933594 L 432.671875 231.972656 L 432.664062 231.988281 L 432.628906 232.046875 L 432.621094 232.066406 L 432.609375 232.085938 L 432.597656 232.109375 L 432.5625 232.167969 L 432.550781 232.191406 L 432.527344 232.230469 L 432.515625 232.253906 L 432.492188 232.292969 L 432.480469 232.308594 L 432.472656 232.328125 L 432.460938 232.34375 L 432.453125 232.359375 L 432.441406 232.375 L 432.433594 232.390625 L 432.421875 232.40625 L 432.414062 232.417969 L 430.40625 235.375 L 430.402344 235.386719 L 430.394531 235.394531 L 430.390625 235.40625 L 430.382812 235.417969 L 430.375 235.425781 L 430.363281 235.441406 L 430.355469 235.453125 L 430.34375 235.464844 L 430.335938 235.480469 L 430.324219 235.492188 L 430.3125 235.507812 L 430.304688 235.523438 L 430.292969 235.535156 L 430.285156 235.550781 L 430.25 235.597656 L 430.242188 235.613281 L 430.21875 235.644531 L 430.207031 235.65625 L 430.195312 235.671875 L 430.1875 235.6875 L 430.175781 235.699219 L 430.152344 235.730469 L 430.140625 235.742188 L 430.117188 235.773438 L 430.109375 235.789062 L 430.097656 235.800781 L 430.085938 235.816406 L 430.078125 235.828125 L 430.066406 235.839844 L 430.050781 235.863281 L 430.039062 235.871094 L 430.03125 235.882812 L 430.027344 235.890625 L 430.019531 235.898438 L 432.785156 235.898438 Z M 432.785156 231.757812 "/>
<path style=" stroke:none;fill-rule:nonzero;fill:rgb(100%,100%,100%);fill-opacity:1;" d="M 69.703125 347.550781 L 69.703125 346.699219 L 71.695312 346.699219 L 71.695312 340.675781 L 69.929688 341.9375 L 69.929688 340.992188 L 71.78125 339.722656 L 72.703125 339.722656 L 72.703125 346.699219 L 74.609375 346.699219 L 74.609375 347.550781 Z M 69.703125 347.550781 "/>
<path style=" stroke:none;fill-rule:nonzero;fill:rgb(100%,100%,100%);fill-opacity:1;" d="M 189.40625 347.550781 L 189.40625 346.84375 L 189.464844 346.71875 L 189.527344 346.589844 L 189.589844 346.46875 L 189.652344 346.351562 L 189.722656 346.234375 L 189.792969 346.121094 L 189.863281 346.011719 L 189.9375 345.90625 L 190.015625 345.800781 L 190.097656 345.699219 L 190.261719 345.503906 L 190.433594 345.316406 L 190.605469 345.136719 L 190.691406 345.050781 L 190.78125 344.964844 L 190.867188 344.882812 L 191.046875 344.71875 L 191.316406 344.484375 L 191.496094 344.335938 L 191.582031 344.261719 L 191.671875 344.191406 L 191.757812 344.121094 L 191.847656 344.050781 L 191.933594 343.980469 L 192.019531 343.914062 L 192.105469 343.84375 L 192.1875 343.773438 L 192.269531 343.707031 L 192.425781 343.566406 L 192.5 343.5 L 192.648438 343.359375 L 192.71875 343.292969 L 192.785156 343.222656 L 192.910156 343.082031 L 192.96875 343.007812 L 193.023438 342.9375 L 193.078125 342.863281 L 193.128906 342.789062 L 193.175781 342.714844 L 193.21875 342.640625 L 193.261719 342.5625 L 193.300781 342.484375 L 193.363281 342.320312 L 193.386719 342.234375 L 193.40625 342.148438 L 193.421875 342.0625 L 193.433594 341.96875 L 193.441406 341.878906 L 193.441406 341.71875 L 193.4375 341.652344 L 193.433594 341.589844 L 193.425781 341.53125 L 193.417969 341.46875 L 193.40625 341.414062 L 193.394531 341.355469 L 193.378906 341.304688 L 193.359375 341.25 L 193.34375 341.199219 L 193.320312 341.148438 L 193.273438 341.054688 L 193.246094 341.007812 L 193.191406 340.921875 L 193.160156 340.882812 L 193.125 340.84375 L 193.054688 340.773438 L 193.015625 340.738281 L 192.972656 340.707031 L 192.933594 340.675781 L 192.890625 340.648438 L 192.84375 340.621094 L 192.75 340.574219 L 192.597656 340.515625 L 192.542969 340.5 L 192.492188 340.484375 L 192.433594 340.46875 L 192.378906 340.460938 L 192.320312 340.449219 L 192.203125 340.433594 L 192.140625 340.429688 L 192.078125 340.429688 L 192.015625 340.425781 L 191.953125 340.429688 L 191.894531 340.429688 L 191.835938 340.433594 L 191.777344 340.441406 L 191.722656 340.449219 L 191.664062 340.457031 L 191.554688 340.480469 L 191.445312 340.511719 L 191.394531 340.527344 L 191.34375 340.546875 L 191.296875 340.566406 L 191.246094 340.589844 L 191.199219 340.613281 L 191.152344 340.640625 L 191.066406 340.695312 L 191.023438 340.726562 L 190.980469 340.761719 L 190.941406 340.792969 L 190.902344 340.832031 L 190.863281 340.867188 L 190.828125 340.90625 L 190.757812 340.992188 L 190.726562 341.035156 L 190.699219 341.082031 L 190.667969 341.128906 L 190.640625 341.175781 L 190.59375 341.277344 L 190.535156 341.441406 L 190.519531 341.5 L 190.507812 341.558594 L 190.492188 341.621094 L 190.484375 341.683594 L 190.472656 341.75 L 189.453125 341.65625 L 189.464844 341.570312 L 189.476562 341.488281 L 189.492188 341.40625 L 189.511719 341.324219 L 189.558594 341.167969 L 189.585938 341.089844 L 189.648438 340.933594 L 189.683594 340.859375 L 189.722656 340.785156 L 189.808594 340.644531 L 189.902344 340.511719 L 190.066406 340.324219 L 190.128906 340.265625 L 190.191406 340.210938 L 190.324219 340.101562 L 190.394531 340.050781 L 190.46875 340.003906 L 190.546875 339.957031 L 190.625 339.914062 L 190.703125 339.875 L 190.789062 339.835938 L 190.875 339.800781 L 190.964844 339.765625 L 191.054688 339.734375 L 191.152344 339.707031 L 191.25 339.683594 L 191.453125 339.644531 L 191.558594 339.628906 L 191.667969 339.617188 L 191.78125 339.609375 L 191.894531 339.605469 L 192.128906 339.605469 L 192.242188 339.609375 L 192.460938 339.625 L 192.566406 339.640625 L 192.769531 339.671875 L 192.867188 339.695312 L 193.054688 339.742188 L 193.144531 339.773438 L 193.230469 339.804688 L 193.394531 339.875 L 193.472656 339.914062 L 193.546875 339.957031 L 193.621094 340.003906 L 193.691406 340.050781 L 193.757812 340.101562 L 193.882812 340.210938 L 193.941406 340.269531 L 193.996094 340.328125 L 194.050781 340.394531 L 194.144531 340.527344 L 194.191406 340.597656 L 194.230469 340.671875 L 194.269531 340.75 L 194.304688 340.828125 L 194.335938 340.910156 L 194.363281 340.992188 L 194.386719 341.078125 L 194.410156 341.167969 L 194.429688 341.257812 L 194.445312 341.351562 L 194.457031 341.449219 L 194.464844 341.546875 L 194.46875 341.644531 L 194.46875 341.828125 L 194.464844 341.90625 L 194.457031 341.984375 L 194.433594 342.132812 L 194.417969 342.210938 L 194.398438 342.28125 L 194.378906 342.355469 L 194.351562 342.429688 L 194.296875 342.570312 L 194.234375 342.710938 L 194.199219 342.777344 L 194.160156 342.847656 L 194.082031 342.980469 L 193.996094 343.113281 L 193.949219 343.179688 L 193.898438 343.242188 L 193.851562 343.304688 L 193.800781 343.371094 L 193.75 343.433594 L 193.640625 343.558594 L 193.582031 343.617188 L 193.523438 343.679688 L 193.402344 343.800781 L 193.277344 343.917969 L 193.214844 343.980469 L 193.148438 344.039062 L 193.085938 344.097656 L 192.753906 344.390625 L 192.683594 344.445312 L 192.617188 344.503906 L 192.550781 344.558594 L 192.480469 344.617188 L 192.414062 344.671875 L 192.34375 344.730469 L 192.277344 344.785156 L 192.207031 344.84375 L 192.136719 344.898438 L 192.070312 344.957031 L 192 345.011719 L 191.933594 345.066406 L 191.867188 345.125 L 191.734375 345.234375 L 191.671875 345.292969 L 191.605469 345.347656 L 191.542969 345.40625 L 191.417969 345.515625 L 191.1875 345.746094 L 191.132812 345.804688 L 191.082031 345.863281 L 191.027344 345.917969 L 190.976562 345.976562 L 190.929688 346.035156 L 190.878906 346.09375 L 190.832031 346.152344 L 190.746094 346.269531 L 190.707031 346.332031 L 190.667969 346.390625 L 190.632812 346.453125 L 190.597656 346.511719 L 190.535156 346.636719 L 190.507812 346.699219 L 194.59375 346.699219 L 194.59375 347.550781 Z M 189.40625 347.550781 "/>
<path style=" stroke:none;fill-rule:nonzero;fill:rgb(100%,100%,100%);fill-opacity:1;" d="M 314.664062 345.390625 L 314.664062 345.496094 L 314.65625 345.601562 L 314.648438 345.703125 L 314.636719 345.800781 L 314.621094 345.898438 L 314.601562 345.996094 L 314.578125 346.085938 L 314.550781 346.175781 L 314.519531 346.265625 L 314.488281 346.351562 L 314.410156 346.515625 L 314.367188 346.59375 L 314.324219 346.667969 L 314.273438 346.742188 L 314.21875 346.8125 L 314.164062 346.878906 L 314.105469 346.945312 L 314.042969 347.007812 L 313.976562 347.066406 L 313.90625 347.125 L 313.835938 347.179688 L 313.761719 347.230469 L 313.683594 347.277344 L 313.601562 347.324219 L 313.515625 347.367188 L 313.335938 347.445312 L 313.242188 347.480469 L 313.140625 347.511719 L 313.042969 347.539062 L 312.9375 347.566406 L 312.832031 347.589844 L 312.722656 347.609375 L 312.609375 347.625 L 312.496094 347.636719 L 312.378906 347.648438 L 312.257812 347.65625 L 312.007812 347.664062 L 311.863281 347.660156 L 311.726562 347.65625 L 311.59375 347.648438 L 311.460938 347.632812 L 311.335938 347.617188 L 311.214844 347.597656 L 311.101562 347.574219 L 310.988281 347.546875 L 310.882812 347.519531 L 310.78125 347.484375 L 310.683594 347.445312 L 310.589844 347.40625 L 310.410156 347.320312 L 310.328125 347.273438 L 310.25 347.226562 L 310.171875 347.171875 L 310.097656 347.121094 L 310.03125 347.066406 L 309.964844 347.007812 L 309.839844 346.882812 L 309.785156 346.820312 L 309.730469 346.753906 L 309.679688 346.6875 L 309.632812 346.617188 L 309.589844 346.546875 L 309.550781 346.476562 L 309.511719 346.402344 L 309.480469 346.328125 L 309.449219 346.25 L 309.417969 346.175781 L 309.394531 346.097656 L 309.367188 346.019531 L 309.347656 345.941406 L 309.328125 345.859375 L 309.308594 345.78125 L 309.292969 345.699219 L 309.28125 345.621094 L 309.269531 345.539062 L 310.300781 345.445312 L 310.3125 345.507812 L 310.347656 345.683594 L 310.363281 345.742188 L 310.382812 345.796875 L 310.398438 345.855469 L 310.417969 345.90625 L 310.441406 345.960938 L 310.488281 346.0625 L 310.515625 346.113281 L 310.542969 346.160156 L 310.574219 346.203125 L 310.605469 346.25 L 310.675781 346.335938 L 310.710938 346.375 L 310.75 346.414062 L 310.792969 346.449219 L 310.832031 346.488281 L 310.878906 346.519531 L 310.921875 346.554688 L 310.972656 346.585938 L 311.019531 346.613281 L 311.070312 346.640625 L 311.125 346.667969 L 311.179688 346.691406 L 311.238281 346.714844 L 311.296875 346.734375 L 311.359375 346.753906 L 311.421875 346.769531 L 311.488281 346.785156 L 311.554688 346.796875 L 311.695312 346.820312 L 311.773438 346.824219 L 311.847656 346.832031 L 311.925781 346.832031 L 312.007812 346.835938 L 312.15625 346.832031 L 312.296875 346.820312 L 312.433594 346.800781 L 312.558594 346.773438 L 312.683594 346.742188 L 312.796875 346.699219 L 312.90625 346.652344 L 313.007812 346.597656 L 313.101562 346.53125 L 313.191406 346.460938 L 313.273438 346.382812 L 313.347656 346.296875 L 313.414062 346.207031 L 313.46875 346.105469 L 313.515625 346 L 313.554688 345.886719 L 313.585938 345.765625 L 313.609375 345.636719 L 313.621094 345.5 L 313.625 345.355469 L 313.625 345.269531 L 313.609375 345.113281 L 313.59375 345.035156 L 313.578125 344.964844 L 313.53125 344.832031 L 313.46875 344.714844 L 313.429688 344.660156 L 313.351562 344.558594 L 313.308594 344.511719 L 313.265625 344.46875 L 313.21875 344.425781 L 313.117188 344.347656 L 313.066406 344.3125 L 313.011719 344.28125 L 312.953125 344.25 L 312.777344 344.167969 L 312.71875 344.144531 L 312.59375 344.105469 L 312.527344 344.089844 L 312.464844 344.074219 L 312.265625 344.039062 L 312.199219 344.03125 L 312.136719 344.023438 L 312.070312 344.019531 L 312.007812 344.011719 L 311.949219 344.007812 L 311.886719 344.003906 L 311.828125 344.003906 L 311.769531 344 L 311.148438 344 L 311.148438 343.132812 L 311.804688 343.132812 L 311.980469 343.121094 L 312.097656 343.105469 L 312.160156 343.097656 L 312.21875 343.089844 L 312.28125 343.078125 L 312.339844 343.066406 L 312.402344 343.050781 L 312.460938 343.03125 L 312.515625 343.015625 L 312.574219 342.996094 L 312.628906 342.972656 L 312.679688 342.949219 L 312.734375 342.921875 L 312.835938 342.867188 L 312.886719 342.835938 L 312.980469 342.765625 L 313.027344 342.726562 L 313.070312 342.683594 L 313.148438 342.597656 L 313.183594 342.550781 L 313.253906 342.449219 L 313.285156 342.394531 L 313.3125 342.339844 L 313.339844 342.28125 L 313.359375 342.21875 L 313.378906 342.152344 L 313.394531 342.085938 L 313.40625 342.011719 L 313.414062 341.941406 L 313.417969 341.863281 L 313.417969 341.660156 L 313.40625 341.542969 L 313.386719 341.429688 L 313.359375 341.324219 L 313.328125 341.222656 L 313.285156 341.125 L 313.238281 341.035156 L 313.179688 340.949219 L 313.117188 340.867188 L 313.046875 340.792969 L 312.96875 340.722656 L 312.886719 340.660156 L 312.796875 340.605469 L 312.695312 340.558594 L 312.589844 340.519531 L 312.476562 340.484375 L 312.355469 340.460938 L 312.230469 340.441406 L 312.09375 340.429688 L 311.953125 340.425781 L 311.824219 340.429688 L 311.699219 340.441406 L 311.578125 340.457031 L 311.464844 340.480469 L 311.355469 340.511719 L 311.25 340.550781 L 311.148438 340.59375 L 311.054688 340.644531 L 310.964844 340.703125 L 310.878906 340.765625 L 310.800781 340.835938 L 310.730469 340.914062 L 310.667969 340.996094 L 310.609375 341.082031 L 310.558594 341.175781 L 310.515625 341.273438 L 310.476562 341.375 L 310.449219 341.484375 L 310.425781 341.601562 L 310.40625 341.722656 L 309.402344 341.644531 L 309.414062 341.542969 L 309.433594 341.441406 L 309.453125 341.347656 L 309.476562 341.253906 L 309.503906 341.160156 L 309.535156 341.070312 L 309.566406 340.984375 L 309.601562 340.902344 L 309.644531 340.820312 L 309.683594 340.742188 L 309.730469 340.667969 L 309.777344 340.597656 L 309.828125 340.527344 L 309.882812 340.457031 L 309.9375 340.394531 L 309.996094 340.332031 L 310.054688 340.273438 L 310.117188 340.214844 L 310.179688 340.160156 L 310.246094 340.109375 L 310.316406 340.058594 L 310.386719 340.011719 L 310.460938 339.96875 L 310.539062 339.925781 L 310.613281 339.886719 L 310.695312 339.851562 L 310.773438 339.816406 L 310.859375 339.785156 L 310.945312 339.757812 L 311.03125 339.734375 L 311.117188 339.707031 L 311.296875 339.667969 L 311.484375 339.636719 L 311.578125 339.625 L 311.671875 339.617188 L 311.769531 339.609375 L 311.867188 339.605469 L 312.09375 339.605469 L 312.21875 339.609375 L 312.460938 339.632812 L 312.574219 339.644531 L 312.683594 339.664062 L 312.792969 339.6875 L 312.894531 339.710938 L 312.996094 339.738281 L 313.09375 339.769531 L 313.273438 339.839844 L 313.359375 339.878906 L 313.441406 339.917969 L 313.519531 339.964844 L 313.597656 340.007812 L 313.738281 340.109375 L 313.800781 340.160156 L 313.863281 340.214844 L 313.921875 340.273438 L 314.03125 340.390625 L 314.078125 340.453125 L 314.125 340.519531 L 314.167969 340.585938 L 314.207031 340.652344 L 314.242188 340.722656 L 314.304688 340.871094 L 314.332031 340.949219 L 314.355469 341.023438 L 314.378906 341.101562 L 314.394531 341.183594 L 314.410156 341.261719 L 314.425781 341.34375 L 314.441406 341.507812 L 314.445312 341.59375 L 314.449219 341.675781 L 314.445312 341.746094 L 314.445312 341.8125 L 314.4375 341.878906 L 314.433594 341.945312 L 314.425781 342.011719 L 314.402344 342.136719 L 314.371094 342.261719 L 314.351562 342.320312 L 314.332031 342.382812 L 314.3125 342.441406 L 314.289062 342.496094 L 314.234375 342.605469 L 314.203125 342.660156 L 314.097656 342.8125 L 314.058594 342.859375 L 314.019531 342.910156 L 313.972656 342.953125 L 313.929688 343 L 313.882812 343.042969 L 313.832031 343.082031 L 313.777344 343.125 L 313.722656 343.164062 L 313.667969 343.199219 L 313.609375 343.238281 L 313.546875 343.273438 L 313.484375 343.304688 L 313.421875 343.339844 L 313.351562 343.367188 L 313.28125 343.398438 L 313.210938 343.421875 L 313.136719 343.449219 L 313.058594 343.472656 L 312.976562 343.496094 L 312.894531 343.515625 L 312.808594 343.535156 L 312.808594 343.554688 L 312.902344 343.566406 L 313.082031 343.597656 L 313.167969 343.613281 L 313.25 343.636719 L 313.332031 343.65625 L 313.410156 343.683594 L 313.484375 343.710938 L 313.632812 343.773438 L 313.699219 343.804688 L 313.832031 343.875 L 313.949219 343.953125 L 314.007812 343.996094 L 314.0625 344.039062 L 314.113281 344.082031 L 314.164062 344.128906 L 314.207031 344.179688 L 314.253906 344.226562 L 314.296875 344.277344 L 314.335938 344.332031 L 314.371094 344.382812 L 314.40625 344.4375 L 314.441406 344.496094 L 314.472656 344.554688 L 314.5 344.613281 L 314.523438 344.671875 L 314.570312 344.796875 L 314.609375 344.921875 L 314.621094 344.988281 L 314.636719 345.054688 L 314.660156 345.253906 L 314.664062 345.320312 Z M 314.664062 345.390625 "/>
<path style=" stroke:none;fill-rule:nonzero;fill:rgb(100%,100%,100%);fill-opacity:1;" d="M 433.730469 345.777344 L 433.730469 347.550781 L 432.785156 347.550781 L 432.785156 345.777344 L 429.097656 345.777344 L 429.097656 345 L 432.679688 339.722656 L 433.730469 339.722656 L 433.730469 344.988281 L 434.832031 344.988281 L 434.832031 345.777344 Z M 432.785156 340.847656 L 432.785156 340.855469 L 432.773438 340.878906 L 432.765625 340.890625 L 432.761719 340.902344 L 432.753906 340.914062 L 432.722656 340.976562 L 432.710938 340.992188 L 432.703125 341.007812 L 432.695312 341.027344 L 432.683594 341.042969 L 432.671875 341.0625 L 432.664062 341.082031 L 432.652344 341.097656 L 432.628906 341.136719 L 432.621094 341.160156 L 432.574219 341.238281 L 432.5625 341.261719 L 432.539062 341.300781 L 432.527344 341.324219 L 432.480469 341.402344 L 432.472656 341.417969 L 432.460938 341.4375 L 432.453125 341.453125 L 432.441406 341.46875 L 432.433594 341.484375 L 432.421875 341.496094 L 432.414062 341.511719 L 430.40625 344.46875 L 430.402344 344.476562 L 430.394531 344.484375 L 430.390625 344.496094 L 430.375 344.519531 L 430.363281 344.53125 L 430.355469 344.542969 L 430.34375 344.554688 L 430.335938 344.570312 L 430.324219 344.582031 L 430.3125 344.597656 L 430.304688 344.613281 L 430.292969 344.628906 L 430.285156 344.640625 L 430.25 344.6875 L 430.242188 344.703125 L 430.207031 344.75 L 430.195312 344.761719 L 430.1875 344.777344 L 430.175781 344.792969 L 430.164062 344.804688 L 430.140625 344.835938 L 430.128906 344.847656 L 430.117188 344.863281 L 430.109375 344.878906 L 430.097656 344.890625 L 430.085938 344.90625 L 430.078125 344.917969 L 430.066406 344.929688 L 430.050781 344.953125 L 430.03125 344.972656 L 430.027344 344.980469 L 430.019531 344.988281 L 432.785156 344.988281 Z M 432.785156 340.847656 "/>
</g>
</svg>
